<svg version="1.1" xmlns="http://www.w3.org/2000/svg" xmlns:xlink="http://www.w3.org/1999/xlink" width="676" height="412"><defs/><g><text fill="#eeeeee" stroke="none" font-family="Arial" font-size="24px" font-style="normal" font-weight="normal" text-decoration="none" x="0" y="0">UNREGISTERED</text><text fill="#eeeeee" stroke="none" font-family="Arial" font-size="24px" font-style="normal" font-weight="normal" text-decoration="none" x="0" y="30">UNREGISTERED</text><text fill="#eeeeee" stroke="none" font-family="Arial" font-size="24px" font-style="normal" font-weight="normal" text-decoration="none" x="0" y="60">UNREGISTERED</text><text fill="#eeeeee" stroke="none" font-family="Arial" font-size="24px" font-style="normal" font-weight="normal" text-decoration="none" x="0" y="90">UNREGISTERED</text><text fill="#eeeeee" stroke="none" font-family="Arial" font-size="24px" font-style="normal" font-weight="normal" text-decoration="none" x="0" y="120">UNREGISTERED</text><text fill="#eeeeee" stroke="none" font-family="Arial" font-size="24px" font-style="normal" font-weight="normal" text-decoration="none" x="0" y="150">UNREGISTERED</text><text fill="#eeeeee" stroke="none" font-family="Arial" font-size="24px" font-style="normal" font-weight="normal" text-decoration="none" x="0" y="180">UNREGISTERED</text><text fill="#eeeeee" stroke="none" font-family="Arial" font-size="24px" font-style="normal" font-weight="normal" text-decoration="none" x="0" y="210">UNREGISTERED</text><text fill="#eeeeee" stroke="none" font-family="Arial" font-size="24px" font-style="normal" font-weight="normal" text-decoration="none" x="0" y="240">UNREGISTERED</text><text fill="#eeeeee" stroke="none" font-family="Arial" font-size="24px" font-style="normal" font-weight="normal" text-decoration="none" x="0" y="270">UNREGISTERED</text><text fill="#eeeeee" stroke="none" font-family="Arial" font-size="24px" font-style="normal" font-weight="normal" text-decoration="none" x="0" y="300">UNREGISTERED</text><text fill="#eeeeee" stroke="none" font-family="Arial" font-size="24px" font-style="normal" font-weight="normal" text-decoration="none" x="0" y="330">UNREGISTERED</text><text fill="#eeeeee" stroke="none" font-family="Arial" font-size="24px" font-style="normal" font-weight="normal" text-decoration="none" x="0" y="360">UNREGISTERED</text><text fill="#eeeeee" stroke="none" font-family="Arial" font-size="24px" font-style="normal" font-weight="normal" text-decoration="none" x="0" y="390">UNREGISTERED</text><text fill="#eeeeee" stroke="none" font-family="Arial" font-size="24px" font-style="normal" font-weight="normal" text-decoration="none" x="200" y="0">UNREGISTERED</text><text fill="#eeeeee" stroke="none" font-family="Arial" font-size="24px" font-style="normal" font-weight="normal" text-decoration="none" x="200" y="30">UNREGISTERED</text><text fill="#eeeeee" stroke="none" font-family="Arial" font-size="24px" font-style="normal" font-weight="normal" text-decoration="none" x="200" y="60">UNREGISTERED</text><text fill="#eeeeee" stroke="none" font-family="Arial" font-size="24px" font-style="normal" font-weight="normal" text-decoration="none" x="200" y="90">UNREGISTERED</text><text fill="#eeeeee" stroke="none" font-family="Arial" font-size="24px" font-style="normal" font-weight="normal" text-decoration="none" x="200" y="120">UNREGISTERED</text><text fill="#eeeeee" stroke="none" font-family="Arial" font-size="24px" font-style="normal" font-weight="normal" text-decoration="none" x="200" y="150">UNREGISTERED</text><text fill="#eeeeee" stroke="none" font-family="Arial" font-size="24px" font-style="normal" font-weight="normal" text-decoration="none" x="200" y="180">UNREGISTERED</text><text fill="#eeeeee" stroke="none" font-family="Arial" font-size="24px" font-style="normal" font-weight="normal" text-decoration="none" x="200" y="210">UNREGISTERED</text><text fill="#eeeeee" stroke="none" font-family="Arial" font-size="24px" font-style="normal" font-weight="normal" text-decoration="none" x="200" y="240">UNREGISTERED</text><text fill="#eeeeee" stroke="none" font-family="Arial" font-size="24px" font-style="normal" font-weight="normal" text-decoration="none" x="200" y="270">UNREGISTERED</text><text fill="#eeeeee" stroke="none" font-family="Arial" font-size="24px" font-style="normal" font-weight="normal" text-decoration="none" x="200" y="300">UNREGISTERED</text><text fill="#eeeeee" stroke="none" font-family="Arial" font-size="24px" font-style="normal" font-weight="normal" text-decoration="none" x="200" y="330">UNREGISTERED</text><text fill="#eeeeee" stroke="none" font-family="Arial" font-size="24px" font-style="normal" font-weight="normal" text-decoration="none" x="200" y="360">UNREGISTERED</text><text fill="#eeeeee" stroke="none" font-family="Arial" font-size="24px" font-style="normal" font-weight="normal" text-decoration="none" x="200" y="390">UNREGISTERED</text><text fill="#eeeeee" stroke="none" font-family="Arial" font-size="24px" font-style="normal" font-weight="normal" text-decoration="none" x="400" y="0">UNREGISTERED</text><text fill="#eeeeee" stroke="none" font-family="Arial" font-size="24px" font-style="normal" font-weight="normal" text-decoration="none" x="400" y="30">UNREGISTERED</text><text fill="#eeeeee" stroke="none" font-family="Arial" font-size="24px" font-style="normal" font-weight="normal" text-decoration="none" x="400" y="60">UNREGISTERED</text><text fill="#eeeeee" stroke="none" font-family="Arial" font-size="24px" font-style="normal" font-weight="normal" text-decoration="none" x="400" y="90">UNREGISTERED</text><text fill="#eeeeee" stroke="none" font-family="Arial" font-size="24px" font-style="normal" font-weight="normal" text-decoration="none" x="400" y="120">UNREGISTERED</text><text fill="#eeeeee" stroke="none" font-family="Arial" font-size="24px" font-style="normal" font-weight="normal" text-decoration="none" x="400" y="150">UNREGISTERED</text><text fill="#eeeeee" stroke="none" font-family="Arial" font-size="24px" font-style="normal" font-weight="normal" text-decoration="none" x="400" y="180">UNREGISTERED</text><text fill="#eeeeee" stroke="none" font-family="Arial" font-size="24px" font-style="normal" font-weight="normal" text-decoration="none" x="400" y="210">UNREGISTERED</text><text fill="#eeeeee" stroke="none" font-family="Arial" font-size="24px" font-style="normal" font-weight="normal" text-decoration="none" x="400" y="240">UNREGISTERED</text><text fill="#eeeeee" stroke="none" font-family="Arial" font-size="24px" font-style="normal" font-weight="normal" text-decoration="none" x="400" y="270">UNREGISTERED</text><text fill="#eeeeee" stroke="none" font-family="Arial" font-size="24px" font-style="normal" font-weight="normal" text-decoration="none" x="400" y="300">UNREGISTERED</text><text fill="#eeeeee" stroke="none" font-family="Arial" font-size="24px" font-style="normal" font-weight="normal" text-decoration="none" x="400" y="330">UNREGISTERED</text><text fill="#eeeeee" stroke="none" font-family="Arial" font-size="24px" font-style="normal" font-weight="normal" text-decoration="none" x="400" y="360">UNREGISTERED</text><text fill="#eeeeee" stroke="none" font-family="Arial" font-size="24px" font-style="normal" font-weight="normal" text-decoration="none" x="400" y="390">UNREGISTERED</text><text fill="#eeeeee" stroke="none" font-family="Arial" font-size="24px" font-style="normal" font-weight="normal" text-decoration="none" x="600" y="0">UNREGISTERED</text><text fill="#eeeeee" stroke="none" font-family="Arial" font-size="24px" font-style="normal" font-weight="normal" text-decoration="none" x="600" y="30">UNREGISTERED</text><text fill="#eeeeee" stroke="none" font-family="Arial" font-size="24px" font-style="normal" font-weight="normal" text-decoration="none" x="600" y="60">UNREGISTERED</text><text fill="#eeeeee" stroke="none" font-family="Arial" font-size="24px" font-style="normal" font-weight="normal" text-decoration="none" x="600" y="90">UNREGISTERED</text><text fill="#eeeeee" stroke="none" font-family="Arial" font-size="24px" font-style="normal" font-weight="normal" text-decoration="none" x="600" y="120">UNREGISTERED</text><text fill="#eeeeee" stroke="none" font-family="Arial" font-size="24px" font-style="normal" font-weight="normal" text-decoration="none" x="600" y="150">UNREGISTERED</text><text fill="#eeeeee" stroke="none" font-family="Arial" font-size="24px" font-style="normal" font-weight="normal" text-decoration="none" x="600" y="180">UNREGISTERED</text><text fill="#eeeeee" stroke="none" font-family="Arial" font-size="24px" font-style="normal" font-weight="normal" text-decoration="none" x="600" y="210">UNREGISTERED</text><text fill="#eeeeee" stroke="none" font-family="Arial" font-size="24px" font-style="normal" font-weight="normal" text-decoration="none" x="600" y="240">UNREGISTERED</text><text fill="#eeeeee" stroke="none" font-family="Arial" font-size="24px" font-style="normal" font-weight="normal" text-decoration="none" x="600" y="270">UNREGISTERED</text><text fill="#eeeeee" stroke="none" font-family="Arial" font-size="24px" font-style="normal" font-weight="normal" text-decoration="none" x="600" y="300">UNREGISTERED</text><text fill="#eeeeee" stroke="none" font-family="Arial" font-size="24px" font-style="normal" font-weight="normal" text-decoration="none" x="600" y="330">UNREGISTERED</text><text fill="#eeeeee" stroke="none" font-family="Arial" font-size="24px" font-style="normal" font-weight="normal" text-decoration="none" x="600" y="360">UNREGISTERED</text><text fill="#eeeeee" stroke="none" font-family="Arial" font-size="24px" font-style="normal" font-weight="normal" text-decoration="none" x="600" y="390">UNREGISTERED</text><g transform="translate(-142,-486) scale(1,1)"><path fill="#ffffff" stroke="none" d="M 188.38298313210228 545.6800000000001 C 188.38298313210228 540.8861679360001 192.26882545704774 537 197.062255859375 537 C 201.85568626170226 537 205.74152858664772 540.8861679360001 205.74152858664772 545.6800000000001 C 205.74152858664772 550.473832064 201.85568626170226 554.36 197.062255859375 554.36 C 192.26882545704774 554.36 188.38298313210228 550.473832064 188.38298313210228 545.6800000000001 Z"/></g><g transform="translate(-142,-486) scale(1,1)"><path fill="none" stroke="#000000" d="M 188.38298313210228 545.6800000000001 C 188.38298313210228 540.8861679360001 192.26882545704774 537 197.062255859375 537 C 201.85568626170226 537 205.74152858664772 540.8861679360001 205.74152858664772 545.6800000000001 C 205.74152858664772 550.473832064 201.85568626170226 554.36 197.062255859375 554.36 C 192.26882545704774 554.36 188.38298313210228 550.473832064 188.38298313210228 545.6800000000001 Z" stroke-miterlimit="10"/></g><g transform="translate(-142,-486) scale(1,1)"><path fill="none" stroke="#000000" d="M 197.062255859375 554.36 L 197.062255859375 571.64" stroke-miterlimit="10"/></g><g transform="translate(-142,-486) scale(1,1)"><path fill="none" stroke="#000000" d="M 187.87243767755683 560.84 L 206.25207404119317 560.84" stroke-miterlimit="10"/></g><g transform="translate(-142,-486) scale(1,1)"><path fill="none" stroke="#000000" d="M 197.062255859375 571.64 L 184.29861949573865 589" stroke-miterlimit="10"/></g><g transform="translate(-142,-486) scale(1,1)"><path fill="none" stroke="#000000" d="M 197.062255859375 571.64 L 209.82589222301135 589" stroke-miterlimit="10"/></g><g transform="translate(-142,-486) scale(1,1)"><g><path fill="none" stroke="none"/><text fill="#000000" stroke="none" font-family="Arial" font-size="13px" font-style="normal" font-weight="bold" text-decoration="none" x="174.302734375" y="609.5">Técnico</text></g></g><g transform="translate(-142,-486) scale(1,1)"><rect fill="#C0C0C0" stroke="none" x="295" y="503" width="208" height="15" opacity="0.2"/></g><g transform="translate(-142,-486) scale(1,1)"><rect fill="#C0C0C0" stroke="none" x="295" y="517" width="520" height="378" opacity="0.2"/></g><g transform="translate(-142,-486) scale(1,1)"><rect fill="#ffffff" stroke="none" x="288" y="511" width="520" height="377"/></g><g transform="translate(-142,-486) scale(1,1)"><path fill="none" stroke="#000000" d="M 288 511 L 808 511 L 808 888 L 288 888 L 288 511 Z Z" stroke-miterlimit="10"/></g><g transform="translate(-142,-486) scale(1,1)"><rect fill="#ffffff" stroke="none" x="288" y="496" width="208" height="15"/></g><g transform="translate(-142,-486) scale(1,1)"><path fill="none" stroke="#000000" d="M 288 496 L 496 496 L 496 511 L 288 511 L 288 496 Z Z" stroke-miterlimit="10"/></g><g transform="translate(-142,-486) scale(1,1)"><rect fill="#ffffff" stroke="none" x="288" y="510" width="520" height="378"/></g><g transform="translate(-142,-486) scale(1,1)"><path fill="none" stroke="#000000" d="M 288 510 L 808 510 L 808 888 L 288 888 L 288 510 Z Z" stroke-miterlimit="10"/></g><g transform="translate(-142,-486) scale(1,1)"><g><path fill="none" stroke="none"/><text fill="#000000" stroke="none" font-family="Arial" font-size="13px" font-style="normal" font-weight="bold" text-decoration="none" x="524.155029296875" y="530.5">Proceso</text></g></g><g transform="translate(-142,-486) scale(1,1)"><path fill="#C0C0C0" stroke="none" d="M 311 672 C 311 662.6111584 361.36796 655 423.5 655 C 485.63204 655 536 662.6111584 536 672 C 536 681.3888416 485.63204 689 423.5 689 C 361.36796 689 311 681.3888416 311 672 Z" opacity="0.2"/></g><g transform="translate(-142,-486) scale(1,1)"><path fill="#ffffff" stroke="none" d="M 304 665 C 304 655.6111584 354.36796 648 416.5 648 C 478.63204 648 529 655.6111584 529 665 C 529 674.3888416 478.63204 682 416.5 682 C 354.36796 682 304 674.3888416 304 665 Z"/></g><g transform="translate(-142,-486) scale(1,1)"><path fill="none" stroke="#000000" d="M 304 665 C 304 655.6111584 354.36796 648 416.5 648 C 478.63204 648 529 655.6111584 529 665 C 529 674.3888416 478.63204 682 416.5 682 C 354.36796 682 304 674.3888416 304 665 Z" stroke-miterlimit="10"/></g><g transform="translate(-142,-486) scale(1,1)"><g><path fill="none" stroke="none"/><text fill="#000000" stroke="none" font-family="Arial" font-size="13px" font-style="normal" font-weight="bold" text-decoration="none" x="346.77734375" y="672">RegistrarObservaciones</text></g></g><g transform="translate(-142,-486) scale(1,1)"><path fill="#C0C0C0" stroke="none" d="M 495 778.5 C 495 767.7304464 539.0999472 759 593.5 759 C 647.9000528 759 692 767.7304464 692 778.5 C 692 789.2695536 647.9000528 798 593.5 798 C 539.0999472 798 495 789.2695536 495 778.5 Z" opacity="0.2"/></g><g transform="translate(-142,-486) scale(1,1)"><path fill="#ffffff" stroke="none" d="M 488 771.5 C 488 760.7304464 532.0999472 752 586.5 752 C 640.9000528 752 685 760.7304464 685 771.5 C 685 782.2695536 640.9000528 791 586.5 791 C 532.0999472 791 488 782.2695536 488 771.5 Z"/></g><g transform="translate(-142,-486) scale(1,1)"><path fill="none" stroke="#000000" d="M 488 771.5 C 488 760.7304464 532.0999472 752 586.5 752 C 640.9000528 752 685 760.7304464 685 771.5 C 685 782.2695536 640.9000528 791 586.5 791 C 532.0999472 791 488 782.2695536 488 771.5 Z" stroke-miterlimit="10"/></g><g transform="translate(-142,-486) scale(1,1)"><g><path fill="none" stroke="none"/><text fill="#000000" stroke="none" font-family="Arial" font-size="13px" font-style="normal" font-weight="bold" text-decoration="none" x="526.892333984375" y="778.5">RegistrarActividades</text></g></g><g transform="translate(-142,-486) scale(1,1)"><path fill="#C0C0C0" stroke="none" d="M 671 864 C 671 854.6111584 699.4299152 847 734.5 847 C 769.5700848 847 798 854.6111584 798 864 C 798 873.3888416 769.5700848 881 734.5 881 C 699.4299152 881 671 873.3888416 671 864 Z" opacity="0.2"/></g><g transform="translate(-142,-486) scale(1,1)"><path fill="#ffffff" stroke="none" d="M 664 857 C 664 847.6111584 692.4299152 840 727.5 840 C 762.5700848 840 791 847.6111584 791 857 C 791 866.3888416 762.5700848 874 727.5 874 C 692.4299152 874 664 866.3888416 664 857 Z"/></g><g transform="translate(-142,-486) scale(1,1)"><path fill="none" stroke="#000000" d="M 664 857 C 664 847.6111584 692.4299152 840 727.5 840 C 762.5700848 840 791 847.6111584 791 857 C 791 866.3888416 762.5700848 874 727.5 874 C 692.4299152 874 664 866.3888416 664 857 Z" stroke-miterlimit="10"/></g><g transform="translate(-142,-486) scale(1,1)"><g><path fill="none" stroke="none"/><text fill="#000000" stroke="none" font-family="Arial" font-size="13px" font-style="normal" font-weight="bold" text-decoration="none" x="691.016845703125" y="864">CerrarOrden</text></g></g><g transform="translate(-142,-486) scale(1,1)"><path fill="#C0C0C0" stroke="none" d="M 447 565.5 C 447 557.4918704 526.00861614375 551 623.470703125 551 C 720.93279010625 551 799.94140625 557.4918704 799.94140625 565.5 C 799.94140625 573.5081296 720.93279010625 580 623.470703125 580 C 526.00861614375 580 447 573.5081296 447 565.5 Z" opacity="0.2"/></g><g transform="translate(-142,-486) scale(1,1)"><path fill="#ffffff" stroke="none" d="M 440 558.5 C 440 550.4918704 519.00861614375 544 616.470703125 544 C 713.93279010625 544 792.94140625 550.4918704 792.94140625 558.5 C 792.94140625 566.5081296 713.93279010625 573 616.470703125 573 C 519.00861614375 573 440 566.5081296 440 558.5 Z"/></g><g transform="translate(-142,-486) scale(1,1)"><path fill="none" stroke="#000000" d="M 440 558.5 C 440 550.4918704 519.00861614375 544 616.470703125 544 C 713.93279010625 544 792.94140625 550.4918704 792.94140625 558.5 C 792.94140625 566.5081296 713.93279010625 573 616.470703125 573 C 519.00861614375 573 440 566.5081296 440 558.5 Z" stroke-miterlimit="10"/></g><g transform="translate(-142,-486) scale(1,1)"><path fill="none" stroke="#000000" d="M 440 578 L 792.94140625 578" stroke-miterlimit="10"/></g><g transform="translate(-142,-486) scale(1,1)"><g><path fill="none" stroke="none"/><text fill="#000000" stroke="none" font-family="Arial" font-size="13px" font-style="normal" font-weight="bold" text-decoration="none" x="584.681640625" y="568">AbrirOrden</text></g></g><g transform="translate(-142,-486) scale(1,1)"><g><path fill="none" stroke="none"/><text fill="#000000" stroke="none" font-family="Arial" font-size="13px" font-style="normal" font-weight="normal" text-decoration="none" x="445" y="595.5">Registrar actividades y observaciones mientras esté abierta</text></g></g><g transform="translate(-142,-486) scale(1,1)"><path fill="#ffffff" stroke="none" d="M 190.82072727272728 753.6800000000001 C 190.82072727272728 748.8861679360001 194.70656959767274 745 199.5 745 C 204.29343040232726 745 208.17927272727272 748.8861679360001 208.17927272727272 753.6800000000001 C 208.17927272727272 758.473832064 204.29343040232726 762.36 199.5 762.36 C 194.70656959767274 762.36 190.82072727272728 758.473832064 190.82072727272728 753.6800000000001 Z"/></g><g transform="translate(-142,-486) scale(1,1)"><path fill="none" stroke="#000000" d="M 190.82072727272728 753.6800000000001 C 190.82072727272728 748.8861679360001 194.70656959767274 745 199.5 745 C 204.29343040232726 745 208.17927272727272 748.8861679360001 208.17927272727272 753.6800000000001 C 208.17927272727272 758.473832064 204.29343040232726 762.36 199.5 762.36 C 194.70656959767274 762.36 190.82072727272728 758.473832064 190.82072727272728 753.6800000000001 Z" stroke-miterlimit="10"/></g><g transform="translate(-142,-486) scale(1,1)"><path fill="none" stroke="#000000" d="M 199.5 762.36 L 199.5 779.64" stroke-miterlimit="10"/></g><g transform="translate(-142,-486) scale(1,1)"><path fill="none" stroke="#000000" d="M 190.31018181818183 768.84 L 208.68981818181817 768.84" stroke-miterlimit="10"/></g><g transform="translate(-142,-486) scale(1,1)"><path fill="none" stroke="#000000" d="M 199.5 779.64 L 186.73636363636365 797" stroke-miterlimit="10"/></g><g transform="translate(-142,-486) scale(1,1)"><path fill="none" stroke="#000000" d="M 199.5 779.64 L 212.26363636363635 797" stroke-miterlimit="10"/></g><g transform="translate(-142,-486) scale(1,1)"><g><path fill="none" stroke="none"/><text fill="#000000" stroke="none" font-family="Arial" font-size="13px" font-style="normal" font-weight="bold" text-decoration="none" x="178.898681640625" y="817.5">Agente</text></g></g><g transform="translate(-142,-486) scale(1,1)"><path fill="#C0C0C0" stroke="none" d="M 327 814.5 C 327 801.5213072 357.6684912 791 395.5 791 C 433.3315088 791 464 801.5213072 464 814.5 C 464 827.4786928 433.3315088 838 395.5 838 C 357.6684912 838 327 827.4786928 327 814.5 Z" opacity="0.2"/></g><g transform="translate(-142,-486) scale(1,1)"><path fill="#ffffff" stroke="none" d="M 320 807.5 C 320 794.5213072 350.6684912 784 388.5 784 C 426.3315088 784 457 794.5213072 457 807.5 C 457 820.4786928 426.3315088 831 388.5 831 C 350.6684912 831 320 820.4786928 320 807.5 Z"/></g><g transform="translate(-142,-486) scale(1,1)"><path fill="none" stroke="#000000" d="M 320 807.5 C 320 794.5213072 350.6684912 784 388.5 784 C 426.3315088 784 457 794.5213072 457 807.5 C 457 820.4786928 426.3315088 831 388.5 831 C 350.6684912 831 320 820.4786928 320 807.5 Z" stroke-miterlimit="10"/></g><g transform="translate(-142,-486) scale(1,1)"><g><path fill="none" stroke="none"/><text fill="#000000" stroke="none" font-family="Arial" font-size="13px" font-style="normal" font-weight="bold" text-decoration="none" x="346.95458984375" y="814.5">RealizarCobro</text></g></g><g transform="translate(-142,-486) scale(1,1)"><path fill="none" stroke="#000000" d="M 227 575 L 439 573" stroke-miterlimit="10"/></g><g transform="translate(-142,-486) scale(1,1)"><path fill="none" stroke="#000000" d="M 428.8774880139959 577.3052004707334 L 439 573 L 428.79806668483127 568.8865395792776" stroke-miterlimit="10"/></g><g transform="translate(-142,-486) scale(1,1)"><path fill="none" stroke="#000000" d="M 455 647 L 551 602" stroke-miterlimit="10" stroke-dasharray="3"/></g><g transform="translate(-142,-486) scale(1,1)"><path fill="none" stroke="#000000" d="M 543.5847771751676 610.1249289509561 L 551 602 L 540.0114532986718 602.5018380144317" stroke-miterlimit="10"/></g><g transform="translate(-142,-486) scale(1,1)"><g><path fill="none" stroke="none"/><text fill="#000000" stroke="none" font-family="Arial" font-size="13px" font-style="normal" font-weight="normal" text-decoration="none" x="455.5" y="619.5">«extend»</text></g></g><g transform="translate(-142,-486) scale(1,1)"><path fill="none" stroke="#000000" d="M 411 783 L 587 602" stroke-miterlimit="10" stroke-dasharray="3"/></g><g transform="translate(-142,-486) scale(1,1)"><path fill="none" stroke="#000000" d="M 582.9332154700967 612.2206293146429 L 587 602 L 576.8972727849027 606.3514253776589" stroke-miterlimit="10"/></g><g transform="translate(-142,-486) scale(1,1)"><g><path fill="none" stroke="none"/><text fill="#000000" stroke="none" font-family="Arial" font-size="13px" font-style="normal" font-weight="normal" text-decoration="none" x="423.5" y="716.5">«extend»</text></g></g><g transform="translate(-142,-486) scale(1,1)"><path fill="none" stroke="#000000" d="M 611 602 L 589 751" stroke-miterlimit="10" stroke-dasharray="3"/></g><g transform="translate(-142,-486) scale(1,1)"><path fill="none" stroke="#000000" d="M 586.3200662922535 740.3314501771757 L 589 751 L 594.6488046272676 741.5611967769764" stroke-miterlimit="10"/></g><g transform="translate(-142,-486) scale(1,1)"><g><path fill="none" stroke="none"/><text fill="#000000" stroke="none" font-family="Arial" font-size="13px" font-style="normal" font-weight="normal" text-decoration="none" x="601.5" y="686.5">«include»</text></g></g><g transform="translate(-142,-486) scale(1,1)"><path fill="none" stroke="#000000" d="M 628 602 L 720 839" stroke-miterlimit="10" stroke-dasharray="3"/></g><g transform="translate(-142,-486) scale(1,1)"><path fill="none" stroke="#000000" d="M 712.3981426509351 831.049417326732 L 720 839 L 720.2465860415155 828.0027641962114" stroke-miterlimit="10"/></g><g transform="translate(-142,-486) scale(1,1)"><g><path fill="none" stroke="none"/><text fill="#000000" stroke="none" font-family="Arial" font-size="13px" font-style="normal" font-weight="normal" text-decoration="none" x="673.5" y="715.5">«include»</text></g></g><g transform="translate(-142,-486) scale(1,1)"><path fill="none" stroke="#000000" d="M 248 789 L 319 798" stroke-miterlimit="10"/></g></g></svg>