<svg version="1.1" xmlns="http://www.w3.org/2000/svg" xmlns:xlink="http://www.w3.org/1999/xlink" width="499" height="428"><defs/><g><text fill="#eeeeee" stroke="none" font-family="Arial" font-size="24px" font-style="normal" font-weight="normal" text-decoration="none" x="0" y="0">UNREGISTERED</text><text fill="#eeeeee" stroke="none" font-family="Arial" font-size="24px" font-style="normal" font-weight="normal" text-decoration="none" x="0" y="30">UNREGISTERED</text><text fill="#eeeeee" stroke="none" font-family="Arial" font-size="24px" font-style="normal" font-weight="normal" text-decoration="none" x="0" y="60">UNREGISTERED</text><text fill="#eeeeee" stroke="none" font-family="Arial" font-size="24px" font-style="normal" font-weight="normal" text-decoration="none" x="0" y="90">UNREGISTERED</text><text fill="#eeeeee" stroke="none" font-family="Arial" font-size="24px" font-style="normal" font-weight="normal" text-decoration="none" x="0" y="120">UNREGISTERED</text><text fill="#eeeeee" stroke="none" font-family="Arial" font-size="24px" font-style="normal" font-weight="normal" text-decoration="none" x="0" y="150">UNREGISTERED</text><text fill="#eeeeee" stroke="none" font-family="Arial" font-size="24px" font-style="normal" font-weight="normal" text-decoration="none" x="0" y="180">UNREGISTERED</text><text fill="#eeeeee" stroke="none" font-family="Arial" font-size="24px" font-style="normal" font-weight="normal" text-decoration="none" x="0" y="210">UNREGISTERED</text><text fill="#eeeeee" stroke="none" font-family="Arial" font-size="24px" font-style="normal" font-weight="normal" text-decoration="none" x="0" y="240">UNREGISTERED</text><text fill="#eeeeee" stroke="none" font-family="Arial" font-size="24px" font-style="normal" font-weight="normal" text-decoration="none" x="0" y="270">UNREGISTERED</text><text fill="#eeeeee" stroke="none" font-family="Arial" font-size="24px" font-style="normal" font-weight="normal" text-decoration="none" x="0" y="300">UNREGISTERED</text><text fill="#eeeeee" stroke="none" font-family="Arial" font-size="24px" font-style="normal" font-weight="normal" text-decoration="none" x="0" y="330">UNREGISTERED</text><text fill="#eeeeee" stroke="none" font-family="Arial" font-size="24px" font-style="normal" font-weight="normal" text-decoration="none" x="0" y="360">UNREGISTERED</text><text fill="#eeeeee" stroke="none" font-family="Arial" font-size="24px" font-style="normal" font-weight="normal" text-decoration="none" x="0" y="390">UNREGISTERED</text><text fill="#eeeeee" stroke="none" font-family="Arial" font-size="24px" font-style="normal" font-weight="normal" text-decoration="none" x="0" y="420">UNREGISTERED</text><text fill="#eeeeee" stroke="none" font-family="Arial" font-size="24px" font-style="normal" font-weight="normal" text-decoration="none" x="200" y="0">UNREGISTERED</text><text fill="#eeeeee" stroke="none" font-family="Arial" font-size="24px" font-style="normal" font-weight="normal" text-decoration="none" x="200" y="30">UNREGISTERED</text><text fill="#eeeeee" stroke="none" font-family="Arial" font-size="24px" font-style="normal" font-weight="normal" text-decoration="none" x="200" y="60">UNREGISTERED</text><text fill="#eeeeee" stroke="none" font-family="Arial" font-size="24px" font-style="normal" font-weight="normal" text-decoration="none" x="200" y="90">UNREGISTERED</text><text fill="#eeeeee" stroke="none" font-family="Arial" font-size="24px" font-style="normal" font-weight="normal" text-decoration="none" x="200" y="120">UNREGISTERED</text><text fill="#eeeeee" stroke="none" font-family="Arial" font-size="24px" font-style="normal" font-weight="normal" text-decoration="none" x="200" y="150">UNREGISTERED</text><text fill="#eeeeee" stroke="none" font-family="Arial" font-size="24px" font-style="normal" font-weight="normal" text-decoration="none" x="200" y="180">UNREGISTERED</text><text fill="#eeeeee" stroke="none" font-family="Arial" font-size="24px" font-style="normal" font-weight="normal" text-decoration="none" x="200" y="210">UNREGISTERED</text><text fill="#eeeeee" stroke="none" font-family="Arial" font-size="24px" font-style="normal" font-weight="normal" text-decoration="none" x="200" y="240">UNREGISTERED</text><text fill="#eeeeee" stroke="none" font-family="Arial" font-size="24px" font-style="normal" font-weight="normal" text-decoration="none" x="200" y="270">UNREGISTERED</text><text fill="#eeeeee" stroke="none" font-family="Arial" font-size="24px" font-style="normal" font-weight="normal" text-decoration="none" x="200" y="300">UNREGISTERED</text><text fill="#eeeeee" stroke="none" font-family="Arial" font-size="24px" font-style="normal" font-weight="normal" text-decoration="none" x="200" y="330">UNREGISTERED</text><text fill="#eeeeee" stroke="none" font-family="Arial" font-size="24px" font-style="normal" font-weight="normal" text-decoration="none" x="200" y="360">UNREGISTERED</text><text fill="#eeeeee" stroke="none" font-family="Arial" font-size="24px" font-style="normal" font-weight="normal" text-decoration="none" x="200" y="390">UNREGISTERED</text><text fill="#eeeeee" stroke="none" font-family="Arial" font-size="24px" font-style="normal" font-weight="normal" text-decoration="none" x="200" y="420">UNREGISTERED</text><text fill="#eeeeee" stroke="none" font-family="Arial" font-size="24px" font-style="normal" font-weight="normal" text-decoration="none" x="400" y="0">UNREGISTERED</text><text fill="#eeeeee" stroke="none" font-family="Arial" font-size="24px" font-style="normal" font-weight="normal" text-decoration="none" x="400" y="30">UNREGISTERED</text><text fill="#eeeeee" stroke="none" font-family="Arial" font-size="24px" font-style="normal" font-weight="normal" text-decoration="none" x="400" y="60">UNREGISTERED</text><text fill="#eeeeee" stroke="none" font-family="Arial" font-size="24px" font-style="normal" font-weight="normal" text-decoration="none" x="400" y="90">UNREGISTERED</text><text fill="#eeeeee" stroke="none" font-family="Arial" font-size="24px" font-style="normal" font-weight="normal" text-decoration="none" x="400" y="120">UNREGISTERED</text><text fill="#eeeeee" stroke="none" font-family="Arial" font-size="24px" font-style="normal" font-weight="normal" text-decoration="none" x="400" y="150">UNREGISTERED</text><text fill="#eeeeee" stroke="none" font-family="Arial" font-size="24px" font-style="normal" font-weight="normal" text-decoration="none" x="400" y="180">UNREGISTERED</text><text fill="#eeeeee" stroke="none" font-family="Arial" font-size="24px" font-style="normal" font-weight="normal" text-decoration="none" x="400" y="210">UNREGISTERED</text><text fill="#eeeeee" stroke="none" font-family="Arial" font-size="24px" font-style="normal" font-weight="normal" text-decoration="none" x="400" y="240">UNREGISTERED</text><text fill="#eeeeee" stroke="none" font-family="Arial" font-size="24px" font-style="normal" font-weight="normal" text-decoration="none" x="400" y="270">UNREGISTERED</text><text fill="#eeeeee" stroke="none" font-family="Arial" font-size="24px" font-style="normal" font-weight="normal" text-decoration="none" x="400" y="300">UNREGISTERED</text><text fill="#eeeeee" stroke="none" font-family="Arial" font-size="24px" font-style="normal" font-weight="normal" text-decoration="none" x="400" y="330">UNREGISTERED</text><text fill="#eeeeee" stroke="none" font-family="Arial" font-size="24px" font-style="normal" font-weight="normal" text-decoration="none" x="400" y="360">UNREGISTERED</text><text fill="#eeeeee" stroke="none" font-family="Arial" font-size="24px" font-style="normal" font-weight="normal" text-decoration="none" x="400" y="390">UNREGISTERED</text><text fill="#eeeeee" stroke="none" font-family="Arial" font-size="24px" font-style="normal" font-weight="normal" text-decoration="none" x="400" y="420">UNREGISTERED</text><g transform="translate(-453,-89) scale(1,1)"><rect fill="#C0C0C0" stroke="none" x="470" y="250" width="172.79999999999995" height="15" opacity="0.2"/></g><g transform="translate(-453,-89) scale(1,1)"><rect fill="#C0C0C0" stroke="none" x="470" y="264" width="432" height="250" opacity="0.2"/></g><g transform="translate(-453,-89) scale(1,1)"><rect fill="#ffffff" stroke="none" x="463" y="258" width="432" height="249"/></g><g transform="translate(-453,-89) scale(1,1)"><path fill="none" stroke="#000000" d="M 463 258 L 895 258 L 895 507 L 463 507 L 463 258 Z Z" stroke-miterlimit="10"/></g><g transform="translate(-453,-89) scale(1,1)"><rect fill="#ffffff" stroke="none" x="463" y="243" width="172.79999999999995" height="15"/></g><g transform="translate(-453,-89) scale(1,1)"><path fill="none" stroke="#000000" d="M 463 243 L 635.8 243 L 635.8 258 L 463 258 L 463 243 Z Z" stroke-miterlimit="10"/></g><g transform="translate(-453,-89) scale(1,1)"><rect fill="#ffffff" stroke="none" x="463" y="257" width="432" height="250"/></g><g transform="translate(-453,-89) scale(1,1)"><path fill="none" stroke="#000000" d="M 463 257 L 895 257 L 895 507 L 463 507 L 463 257 Z Z" stroke-miterlimit="10"/></g><g transform="translate(-453,-89) scale(1,1)"><g><path fill="none" stroke="none"/><text fill="#000000" stroke="none" font-family="Arial" font-size="13px" font-style="normal" font-weight="bold" text-decoration="none" x="654.79638671875" y="277.5">Registro</text></g></g><g transform="translate(-453,-89) scale(1,1)"><path fill="#ffffff" stroke="none" d="M 557.8207272727273 108.68 C 557.8207272727273 103.886167936 561.7065695976727 100 566.5 100 C 571.2934304023273 100 575.1792727272727 103.886167936 575.1792727272727 108.68 C 575.1792727272727 113.473832064 571.2934304023273 117.36 566.5 117.36 C 561.7065695976727 117.36 557.8207272727273 113.473832064 557.8207272727273 108.68 Z"/></g><g transform="translate(-453,-89) scale(1,1)"><path fill="none" stroke="#000000" d="M 557.8207272727273 108.68 C 557.8207272727273 103.886167936 561.7065695976727 100 566.5 100 C 571.2934304023273 100 575.1792727272727 103.886167936 575.1792727272727 108.68 C 575.1792727272727 113.473832064 571.2934304023273 117.36 566.5 117.36 C 561.7065695976727 117.36 557.8207272727273 113.473832064 557.8207272727273 108.68 Z" stroke-miterlimit="10"/></g><g transform="translate(-453,-89) scale(1,1)"><path fill="none" stroke="#000000" d="M 566.5 117.36 L 566.5 134.64" stroke-miterlimit="10"/></g><g transform="translate(-453,-89) scale(1,1)"><path fill="none" stroke="#000000" d="M 557.3101818181818 123.84 L 575.6898181818182 123.84" stroke-miterlimit="10"/></g><g transform="translate(-453,-89) scale(1,1)"><path fill="none" stroke="#000000" d="M 566.5 134.64 L 553.7363636363636 152" stroke-miterlimit="10"/></g><g transform="translate(-453,-89) scale(1,1)"><path fill="none" stroke="#000000" d="M 566.5 134.64 L 579.2636363636364 152" stroke-miterlimit="10"/></g><g transform="translate(-453,-89) scale(1,1)"><g><path fill="none" stroke="none"/><text fill="#000000" stroke="none" font-family="Arial" font-size="13px" font-style="normal" font-weight="bold" text-decoration="none" x="545.898681640625" y="172.5">Agente</text></g></g><g transform="translate(-453,-89) scale(1,1)"><path fill="#C0C0C0" stroke="none" d="M 486 355 C 486 345.6111584 532.5623808 338 590 338 C 647.4376192 338 694 345.6111584 694 355 C 694 364.3888416 647.4376192 372 590 372 C 532.5623808 372 486 364.3888416 486 355 Z" opacity="0.2"/></g><g transform="translate(-453,-89) scale(1,1)"><path fill="#ffffff" stroke="none" d="M 479 348 C 479 338.6111584 525.5623808 331 583 331 C 640.4376192 331 687 338.6111584 687 348 C 687 357.3888416 640.4376192 365 583 365 C 525.5623808 365 479 357.3888416 479 348 Z"/></g><g transform="translate(-453,-89) scale(1,1)"><path fill="none" stroke="#000000" d="M 479 348 C 479 338.6111584 525.5623808 331 583 331 C 640.4376192 331 687 338.6111584 687 348 C 687 357.3888416 640.4376192 365 583 365 C 525.5623808 365 479 357.3888416 479 348 Z" stroke-miterlimit="10"/></g><g transform="translate(-453,-89) scale(1,1)"><g><path fill="none" stroke="none"/><text fill="#000000" stroke="none" font-family="Arial" font-size="13px" font-style="normal" font-weight="bold" text-decoration="none" x="525.556884765625" y="355">RegistrarInfoCliente</text></g></g><g transform="translate(-453,-89) scale(1,1)"><path fill="#C0C0C0" stroke="none" d="M 494 427 C 494 417.6111584 540.5623808 410 598 410 C 655.4376192 410 702 417.6111584 702 427 C 702 436.3888416 655.4376192 444 598 444 C 540.5623808 444 494 436.3888416 494 427 Z" opacity="0.2"/></g><g transform="translate(-453,-89) scale(1,1)"><path fill="#ffffff" stroke="none" d="M 487 420 C 487 410.6111584 533.5623808 403 591 403 C 648.4376192 403 695 410.6111584 695 420 C 695 429.3888416 648.4376192 437 591 437 C 533.5623808 437 487 429.3888416 487 420 Z"/></g><g transform="translate(-453,-89) scale(1,1)"><path fill="none" stroke="#000000" d="M 487 420 C 487 410.6111584 533.5623808 403 591 403 C 648.4376192 403 695 410.6111584 695 420 C 695 429.3888416 648.4376192 437 591 437 C 533.5623808 437 487 429.3888416 487 420 Z" stroke-miterlimit="10"/></g><g transform="translate(-453,-89) scale(1,1)"><g><path fill="none" stroke="none"/><text fill="#000000" stroke="none" font-family="Arial" font-size="13px" font-style="normal" font-weight="bold" text-decoration="none" x="527.774169921875" y="427">RegistrarInfoProducto</text></g></g><g transform="translate(-453,-89) scale(1,1)"><path fill="#C0C0C0" stroke="none" d="M 710 475 C 710 465.6111584 750.9659408 458 801.5 458 C 852.0340592 458 893 465.6111584 893 475 C 893 484.3888416 852.0340592 492 801.5 492 C 750.9659408 492 710 484.3888416 710 475 Z" opacity="0.2"/></g><g transform="translate(-453,-89) scale(1,1)"><path fill="#ffffff" stroke="none" d="M 703 468 C 703 458.6111584 743.9659408 451 794.5 451 C 845.0340592 451 886 458.6111584 886 468 C 886 477.3888416 845.0340592 485 794.5 485 C 743.9659408 485 703 477.3888416 703 468 Z"/></g><g transform="translate(-453,-89) scale(1,1)"><path fill="none" stroke="#000000" d="M 703 468 C 703 458.6111584 743.9659408 451 794.5 451 C 845.0340592 451 886 458.6111584 886 468 C 886 477.3888416 845.0340592 485 794.5 485 C 743.9659408 485 703 477.3888416 703 468 Z" stroke-miterlimit="10"/></g><g transform="translate(-453,-89) scale(1,1)"><g><path fill="none" stroke="none"/><text fill="#000000" stroke="none" font-family="Arial" font-size="13px" font-style="normal" font-weight="bold" text-decoration="none" x="738.62158203125" y="475">RegistrarInfoAvería</text></g></g><g transform="translate(-453,-89) scale(1,1)"><path fill="#C0C0C0" stroke="none" d="M 742 315 C 742 305.6111584 772.8923488 298 811 298 C 849.1076512 298 880 305.6111584 880 315 C 880 324.3888416 849.1076512 332 811 332 C 772.8923488 332 742 324.3888416 742 315 Z" opacity="0.2"/></g><g transform="translate(-453,-89) scale(1,1)"><path fill="#ffffff" stroke="none" d="M 735 308 C 735 298.6111584 765.8923488 291 804 291 C 842.1076512 291 873 298.6111584 873 308 C 873 317.3888416 842.1076512 325 804 325 C 765.8923488 325 735 317.3888416 735 308 Z"/></g><g transform="translate(-453,-89) scale(1,1)"><path fill="none" stroke="#000000" d="M 735 308 C 735 298.6111584 765.8923488 291 804 291 C 842.1076512 291 873 298.6111584 873 308 C 873 317.3888416 842.1076512 325 804 325 C 765.8923488 325 735 317.3888416 735 308 Z" stroke-miterlimit="10"/></g><g transform="translate(-453,-89) scale(1,1)"><g><path fill="none" stroke="none"/><text fill="#000000" stroke="none" font-family="Arial" font-size="13px" font-style="normal" font-weight="bold" text-decoration="none" x="762.089599609375" y="315">GenerarOrden</text></g></g><g transform="translate(-453,-89) scale(1,1)"><path fill="none" stroke="#000000" d="M 734 321 L 682 330" stroke-miterlimit="10" stroke-dasharray="3"/></g><g transform="translate(-453,-89) scale(1,1)"><path fill="none" stroke="#000000" d="M 691.2958996184836 324.1189924091976 L 682 330 L 692.7316940051252 332.4146933097932" stroke-miterlimit="10"/></g><g transform="translate(-453,-89) scale(1,1)"><g><path fill="none" stroke="none"/><text fill="#000000" stroke="none" font-family="Arial" font-size="13px" font-style="normal" font-weight="normal" text-decoration="none" x="685.5" y="360.5">«include»</text></g></g><g transform="translate(-453,-89) scale(1,1)"><path fill="none" stroke="#000000" d="M 770 326 L 625 402" stroke-miterlimit="10" stroke-dasharray="3"/></g><g transform="translate(-453,-89) scale(1,1)"><path fill="none" stroke="#000000" d="M 632.0469961042693 393.55370815645034 L 625 402 L 635.9554089707785 401.0105484938694" stroke-miterlimit="10"/></g><g transform="translate(-453,-89) scale(1,1)"><g><path fill="none" stroke="none"/><text fill="#000000" stroke="none" font-family="Arial" font-size="13px" font-style="normal" font-weight="normal" text-decoration="none" x="683.5" y="396.5">«include»</text></g></g><g transform="translate(-453,-89) scale(1,1)"><path fill="none" stroke="#000000" d="M 803 326 L 795 450" stroke-miterlimit="10" stroke-dasharray="3"/></g><g transform="translate(-453,-89) scale(1,1)"><path fill="none" stroke="#000000" d="M 791.453511850606 439.58739121035427 L 795 450 L 799.8550804651669 440.1294278951646" stroke-miterlimit="10"/></g><g transform="translate(-453,-89) scale(1,1)"><g><path fill="none" stroke="none"/><text fill="#000000" stroke="none" font-family="Arial" font-size="13px" font-style="normal" font-weight="normal" text-decoration="none" x="800.5" y="395.5">«include»</text></g></g><g transform="translate(-453,-89) scale(1,1)"><path fill="none" stroke="#000000" d="M 615 173 L 779 290" stroke-miterlimit="10"/></g><g transform="translate(-453,-89) scale(1,1)"><path fill="none" stroke="#000000" d="M 768.2821286834417 287.5246748816171 L 779 290 L 773.1716396890268 280.6710013353269" stroke-miterlimit="10"/></g><g transform="translate(-453,-89) scale(1,1)"><path fill="#ffffff" stroke="none" d="M 901.8207272727273 132.68 C 901.8207272727273 127.886167936 905.7065695976727 124 910.5 124 C 915.2934304023273 124 919.1792727272727 127.886167936 919.1792727272727 132.68 C 919.1792727272727 137.47383206400002 915.2934304023273 141.36 910.5 141.36 C 905.7065695976727 141.36 901.8207272727273 137.47383206400002 901.8207272727273 132.68 Z"/></g><g transform="translate(-453,-89) scale(1,1)"><path fill="none" stroke="#000000" d="M 901.8207272727273 132.68 C 901.8207272727273 127.886167936 905.7065695976727 124 910.5 124 C 915.2934304023273 124 919.1792727272727 127.886167936 919.1792727272727 132.68 C 919.1792727272727 137.47383206400002 915.2934304023273 141.36 910.5 141.36 C 905.7065695976727 141.36 901.8207272727273 137.47383206400002 901.8207272727273 132.68 Z" stroke-miterlimit="10"/></g><g transform="translate(-453,-89) scale(1,1)"><path fill="none" stroke="#000000" d="M 910.5 141.36 L 910.5 158.64" stroke-miterlimit="10"/></g><g transform="translate(-453,-89) scale(1,1)"><path fill="none" stroke="#000000" d="M 901.3101818181818 147.84 L 919.6898181818182 147.84" stroke-miterlimit="10"/></g><g transform="translate(-453,-89) scale(1,1)"><path fill="none" stroke="#000000" d="M 910.5 158.64 L 897.7363636363636 176" stroke-miterlimit="10"/></g><g transform="translate(-453,-89) scale(1,1)"><path fill="none" stroke="#000000" d="M 910.5 158.64 L 923.2636363636364 176" stroke-miterlimit="10"/></g><g transform="translate(-453,-89) scale(1,1)"><g><path fill="none" stroke="none"/><text fill="#000000" stroke="none" font-family="Arial" font-size="13px" font-style="normal" font-weight="bold" text-decoration="none" x="890.266845703125" y="196.5">Cliente</text></g></g><g transform="translate(-453,-89) scale(1,1)"><path fill="none" stroke="#000000" d="M 817 290 L 880 203" stroke-miterlimit="10"/></g><g transform="translate(-453,-89) scale(1,1)"><path fill="none" stroke="#000000" d="M 877.4489572202752 213.7001019030668 L 880 203 L 870.630025736314 208.76225496640524" stroke-miterlimit="10"/></g><g transform="translate(-453,-89) scale(1,1)"><g><path fill="none" stroke="none"/><text fill="#000000" stroke="none" font-family="Arial" font-size="13px" font-style="normal" font-weight="normal" text-decoration="none" x="740.5" y="223.5">+Copia de la orden</text></g></g></g></svg>