<svg version="1.1" xmlns="http://www.w3.org/2000/svg" xmlns:xlink="http://www.w3.org/1999/xlink" width="861.5126953125" height="542"><defs/><g><text fill="#eeeeee" stroke="none" font-family="Arial" font-size="24px" font-style="normal" font-weight="normal" text-decoration="none" x="0" y="0">UNREGISTERED</text><text fill="#eeeeee" stroke="none" font-family="Arial" font-size="24px" font-style="normal" font-weight="normal" text-decoration="none" x="0" y="30">UNREGISTERED</text><text fill="#eeeeee" stroke="none" font-family="Arial" font-size="24px" font-style="normal" font-weight="normal" text-decoration="none" x="0" y="60">UNREGISTERED</text><text fill="#eeeeee" stroke="none" font-family="Arial" font-size="24px" font-style="normal" font-weight="normal" text-decoration="none" x="0" y="90">UNREGISTERED</text><text fill="#eeeeee" stroke="none" font-family="Arial" font-size="24px" font-style="normal" font-weight="normal" text-decoration="none" x="0" y="120">UNREGISTERED</text><text fill="#eeeeee" stroke="none" font-family="Arial" font-size="24px" font-style="normal" font-weight="normal" text-decoration="none" x="0" y="150">UNREGISTERED</text><text fill="#eeeeee" stroke="none" font-family="Arial" font-size="24px" font-style="normal" font-weight="normal" text-decoration="none" x="0" y="180">UNREGISTERED</text><text fill="#eeeeee" stroke="none" font-family="Arial" font-size="24px" font-style="normal" font-weight="normal" text-decoration="none" x="0" y="210">UNREGISTERED</text><text fill="#eeeeee" stroke="none" font-family="Arial" font-size="24px" font-style="normal" font-weight="normal" text-decoration="none" x="0" y="240">UNREGISTERED</text><text fill="#eeeeee" stroke="none" font-family="Arial" font-size="24px" font-style="normal" font-weight="normal" text-decoration="none" x="0" y="270">UNREGISTERED</text><text fill="#eeeeee" stroke="none" font-family="Arial" font-size="24px" font-style="normal" font-weight="normal" text-decoration="none" x="0" y="300">UNREGISTERED</text><text fill="#eeeeee" stroke="none" font-family="Arial" font-size="24px" font-style="normal" font-weight="normal" text-decoration="none" x="0" y="330">UNREGISTERED</text><text fill="#eeeeee" stroke="none" font-family="Arial" font-size="24px" font-style="normal" font-weight="normal" text-decoration="none" x="0" y="360">UNREGISTERED</text><text fill="#eeeeee" stroke="none" font-family="Arial" font-size="24px" font-style="normal" font-weight="normal" text-decoration="none" x="0" y="390">UNREGISTERED</text><text fill="#eeeeee" stroke="none" font-family="Arial" font-size="24px" font-style="normal" font-weight="normal" text-decoration="none" x="0" y="420">UNREGISTERED</text><text fill="#eeeeee" stroke="none" font-family="Arial" font-size="24px" font-style="normal" font-weight="normal" text-decoration="none" x="0" y="450">UNREGISTERED</text><text fill="#eeeeee" stroke="none" font-family="Arial" font-size="24px" font-style="normal" font-weight="normal" text-decoration="none" x="0" y="480">UNREGISTERED</text><text fill="#eeeeee" stroke="none" font-family="Arial" font-size="24px" font-style="normal" font-weight="normal" text-decoration="none" x="0" y="510">UNREGISTERED</text><text fill="#eeeeee" stroke="none" font-family="Arial" font-size="24px" font-style="normal" font-weight="normal" text-decoration="none" x="0" y="540">UNREGISTERED</text><text fill="#eeeeee" stroke="none" font-family="Arial" font-size="24px" font-style="normal" font-weight="normal" text-decoration="none" x="200" y="0">UNREGISTERED</text><text fill="#eeeeee" stroke="none" font-family="Arial" font-size="24px" font-style="normal" font-weight="normal" text-decoration="none" x="200" y="30">UNREGISTERED</text><text fill="#eeeeee" stroke="none" font-family="Arial" font-size="24px" font-style="normal" font-weight="normal" text-decoration="none" x="200" y="60">UNREGISTERED</text><text fill="#eeeeee" stroke="none" font-family="Arial" font-size="24px" font-style="normal" font-weight="normal" text-decoration="none" x="200" y="90">UNREGISTERED</text><text fill="#eeeeee" stroke="none" font-family="Arial" font-size="24px" font-style="normal" font-weight="normal" text-decoration="none" x="200" y="120">UNREGISTERED</text><text fill="#eeeeee" stroke="none" font-family="Arial" font-size="24px" font-style="normal" font-weight="normal" text-decoration="none" x="200" y="150">UNREGISTERED</text><text fill="#eeeeee" stroke="none" font-family="Arial" font-size="24px" font-style="normal" font-weight="normal" text-decoration="none" x="200" y="180">UNREGISTERED</text><text fill="#eeeeee" stroke="none" font-family="Arial" font-size="24px" font-style="normal" font-weight="normal" text-decoration="none" x="200" y="210">UNREGISTERED</text><text fill="#eeeeee" stroke="none" font-family="Arial" font-size="24px" font-style="normal" font-weight="normal" text-decoration="none" x="200" y="240">UNREGISTERED</text><text fill="#eeeeee" stroke="none" font-family="Arial" font-size="24px" font-style="normal" font-weight="normal" text-decoration="none" x="200" y="270">UNREGISTERED</text><text fill="#eeeeee" stroke="none" font-family="Arial" font-size="24px" font-style="normal" font-weight="normal" text-decoration="none" x="200" y="300">UNREGISTERED</text><text fill="#eeeeee" stroke="none" font-family="Arial" font-size="24px" font-style="normal" font-weight="normal" text-decoration="none" x="200" y="330">UNREGISTERED</text><text fill="#eeeeee" stroke="none" font-family="Arial" font-size="24px" font-style="normal" font-weight="normal" text-decoration="none" x="200" y="360">UNREGISTERED</text><text fill="#eeeeee" stroke="none" font-family="Arial" font-size="24px" font-style="normal" font-weight="normal" text-decoration="none" x="200" y="390">UNREGISTERED</text><text fill="#eeeeee" stroke="none" font-family="Arial" font-size="24px" font-style="normal" font-weight="normal" text-decoration="none" x="200" y="420">UNREGISTERED</text><text fill="#eeeeee" stroke="none" font-family="Arial" font-size="24px" font-style="normal" font-weight="normal" text-decoration="none" x="200" y="450">UNREGISTERED</text><text fill="#eeeeee" stroke="none" font-family="Arial" font-size="24px" font-style="normal" font-weight="normal" text-decoration="none" x="200" y="480">UNREGISTERED</text><text fill="#eeeeee" stroke="none" font-family="Arial" font-size="24px" font-style="normal" font-weight="normal" text-decoration="none" x="200" y="510">UNREGISTERED</text><text fill="#eeeeee" stroke="none" font-family="Arial" font-size="24px" font-style="normal" font-weight="normal" text-decoration="none" x="200" y="540">UNREGISTERED</text><text fill="#eeeeee" stroke="none" font-family="Arial" font-size="24px" font-style="normal" font-weight="normal" text-decoration="none" x="400" y="0">UNREGISTERED</text><text fill="#eeeeee" stroke="none" font-family="Arial" font-size="24px" font-style="normal" font-weight="normal" text-decoration="none" x="400" y="30">UNREGISTERED</text><text fill="#eeeeee" stroke="none" font-family="Arial" font-size="24px" font-style="normal" font-weight="normal" text-decoration="none" x="400" y="60">UNREGISTERED</text><text fill="#eeeeee" stroke="none" font-family="Arial" font-size="24px" font-style="normal" font-weight="normal" text-decoration="none" x="400" y="90">UNREGISTERED</text><text fill="#eeeeee" stroke="none" font-family="Arial" font-size="24px" font-style="normal" font-weight="normal" text-decoration="none" x="400" y="120">UNREGISTERED</text><text fill="#eeeeee" stroke="none" font-family="Arial" font-size="24px" font-style="normal" font-weight="normal" text-decoration="none" x="400" y="150">UNREGISTERED</text><text fill="#eeeeee" stroke="none" font-family="Arial" font-size="24px" font-style="normal" font-weight="normal" text-decoration="none" x="400" y="180">UNREGISTERED</text><text fill="#eeeeee" stroke="none" font-family="Arial" font-size="24px" font-style="normal" font-weight="normal" text-decoration="none" x="400" y="210">UNREGISTERED</text><text fill="#eeeeee" stroke="none" font-family="Arial" font-size="24px" font-style="normal" font-weight="normal" text-decoration="none" x="400" y="240">UNREGISTERED</text><text fill="#eeeeee" stroke="none" font-family="Arial" font-size="24px" font-style="normal" font-weight="normal" text-decoration="none" x="400" y="270">UNREGISTERED</text><text fill="#eeeeee" stroke="none" font-family="Arial" font-size="24px" font-style="normal" font-weight="normal" text-decoration="none" x="400" y="300">UNREGISTERED</text><text fill="#eeeeee" stroke="none" font-family="Arial" font-size="24px" font-style="normal" font-weight="normal" text-decoration="none" x="400" y="330">UNREGISTERED</text><text fill="#eeeeee" stroke="none" font-family="Arial" font-size="24px" font-style="normal" font-weight="normal" text-decoration="none" x="400" y="360">UNREGISTERED</text><text fill="#eeeeee" stroke="none" font-family="Arial" font-size="24px" font-style="normal" font-weight="normal" text-decoration="none" x="400" y="390">UNREGISTERED</text><text fill="#eeeeee" stroke="none" font-family="Arial" font-size="24px" font-style="normal" font-weight="normal" text-decoration="none" x="400" y="420">UNREGISTERED</text><text fill="#eeeeee" stroke="none" font-family="Arial" font-size="24px" font-style="normal" font-weight="normal" text-decoration="none" x="400" y="450">UNREGISTERED</text><text fill="#eeeeee" stroke="none" font-family="Arial" font-size="24px" font-style="normal" font-weight="normal" text-decoration="none" x="400" y="480">UNREGISTERED</text><text fill="#eeeeee" stroke="none" font-family="Arial" font-size="24px" font-style="normal" font-weight="normal" text-decoration="none" x="400" y="510">UNREGISTERED</text><text fill="#eeeeee" stroke="none" font-family="Arial" font-size="24px" font-style="normal" font-weight="normal" text-decoration="none" x="400" y="540">UNREGISTERED</text><text fill="#eeeeee" stroke="none" font-family="Arial" font-size="24px" font-style="normal" font-weight="normal" text-decoration="none" x="600" y="0">UNREGISTERED</text><text fill="#eeeeee" stroke="none" font-family="Arial" font-size="24px" font-style="normal" font-weight="normal" text-decoration="none" x="600" y="30">UNREGISTERED</text><text fill="#eeeeee" stroke="none" font-family="Arial" font-size="24px" font-style="normal" font-weight="normal" text-decoration="none" x="600" y="60">UNREGISTERED</text><text fill="#eeeeee" stroke="none" font-family="Arial" font-size="24px" font-style="normal" font-weight="normal" text-decoration="none" x="600" y="90">UNREGISTERED</text><text fill="#eeeeee" stroke="none" font-family="Arial" font-size="24px" font-style="normal" font-weight="normal" text-decoration="none" x="600" y="120">UNREGISTERED</text><text fill="#eeeeee" stroke="none" font-family="Arial" font-size="24px" font-style="normal" font-weight="normal" text-decoration="none" x="600" y="150">UNREGISTERED</text><text fill="#eeeeee" stroke="none" font-family="Arial" font-size="24px" font-style="normal" font-weight="normal" text-decoration="none" x="600" y="180">UNREGISTERED</text><text fill="#eeeeee" stroke="none" font-family="Arial" font-size="24px" font-style="normal" font-weight="normal" text-decoration="none" x="600" y="210">UNREGISTERED</text><text fill="#eeeeee" stroke="none" font-family="Arial" font-size="24px" font-style="normal" font-weight="normal" text-decoration="none" x="600" y="240">UNREGISTERED</text><text fill="#eeeeee" stroke="none" font-family="Arial" font-size="24px" font-style="normal" font-weight="normal" text-decoration="none" x="600" y="270">UNREGISTERED</text><text fill="#eeeeee" stroke="none" font-family="Arial" font-size="24px" font-style="normal" font-weight="normal" text-decoration="none" x="600" y="300">UNREGISTERED</text><text fill="#eeeeee" stroke="none" font-family="Arial" font-size="24px" font-style="normal" font-weight="normal" text-decoration="none" x="600" y="330">UNREGISTERED</text><text fill="#eeeeee" stroke="none" font-family="Arial" font-size="24px" font-style="normal" font-weight="normal" text-decoration="none" x="600" y="360">UNREGISTERED</text><text fill="#eeeeee" stroke="none" font-family="Arial" font-size="24px" font-style="normal" font-weight="normal" text-decoration="none" x="600" y="390">UNREGISTERED</text><text fill="#eeeeee" stroke="none" font-family="Arial" font-size="24px" font-style="normal" font-weight="normal" text-decoration="none" x="600" y="420">UNREGISTERED</text><text fill="#eeeeee" stroke="none" font-family="Arial" font-size="24px" font-style="normal" font-weight="normal" text-decoration="none" x="600" y="450">UNREGISTERED</text><text fill="#eeeeee" stroke="none" font-family="Arial" font-size="24px" font-style="normal" font-weight="normal" text-decoration="none" x="600" y="480">UNREGISTERED</text><text fill="#eeeeee" stroke="none" font-family="Arial" font-size="24px" font-style="normal" font-weight="normal" text-decoration="none" x="600" y="510">UNREGISTERED</text><text fill="#eeeeee" stroke="none" font-family="Arial" font-size="24px" font-style="normal" font-weight="normal" text-decoration="none" x="600" y="540">UNREGISTERED</text><text fill="#eeeeee" stroke="none" font-family="Arial" font-size="24px" font-style="normal" font-weight="normal" text-decoration="none" x="800" y="0">UNREGISTERED</text><text fill="#eeeeee" stroke="none" font-family="Arial" font-size="24px" font-style="normal" font-weight="normal" text-decoration="none" x="800" y="30">UNREGISTERED</text><text fill="#eeeeee" stroke="none" font-family="Arial" font-size="24px" font-style="normal" font-weight="normal" text-decoration="none" x="800" y="60">UNREGISTERED</text><text fill="#eeeeee" stroke="none" font-family="Arial" font-size="24px" font-style="normal" font-weight="normal" text-decoration="none" x="800" y="90">UNREGISTERED</text><text fill="#eeeeee" stroke="none" font-family="Arial" font-size="24px" font-style="normal" font-weight="normal" text-decoration="none" x="800" y="120">UNREGISTERED</text><text fill="#eeeeee" stroke="none" font-family="Arial" font-size="24px" font-style="normal" font-weight="normal" text-decoration="none" x="800" y="150">UNREGISTERED</text><text fill="#eeeeee" stroke="none" font-family="Arial" font-size="24px" font-style="normal" font-weight="normal" text-decoration="none" x="800" y="180">UNREGISTERED</text><text fill="#eeeeee" stroke="none" font-family="Arial" font-size="24px" font-style="normal" font-weight="normal" text-decoration="none" x="800" y="210">UNREGISTERED</text><text fill="#eeeeee" stroke="none" font-family="Arial" font-size="24px" font-style="normal" font-weight="normal" text-decoration="none" x="800" y="240">UNREGISTERED</text><text fill="#eeeeee" stroke="none" font-family="Arial" font-size="24px" font-style="normal" font-weight="normal" text-decoration="none" x="800" y="270">UNREGISTERED</text><text fill="#eeeeee" stroke="none" font-family="Arial" font-size="24px" font-style="normal" font-weight="normal" text-decoration="none" x="800" y="300">UNREGISTERED</text><text fill="#eeeeee" stroke="none" font-family="Arial" font-size="24px" font-style="normal" font-weight="normal" text-decoration="none" x="800" y="330">UNREGISTERED</text><text fill="#eeeeee" stroke="none" font-family="Arial" font-size="24px" font-style="normal" font-weight="normal" text-decoration="none" x="800" y="360">UNREGISTERED</text><text fill="#eeeeee" stroke="none" font-family="Arial" font-size="24px" font-style="normal" font-weight="normal" text-decoration="none" x="800" y="390">UNREGISTERED</text><text fill="#eeeeee" stroke="none" font-family="Arial" font-size="24px" font-style="normal" font-weight="normal" text-decoration="none" x="800" y="420">UNREGISTERED</text><text fill="#eeeeee" stroke="none" font-family="Arial" font-size="24px" font-style="normal" font-weight="normal" text-decoration="none" x="800" y="450">UNREGISTERED</text><text fill="#eeeeee" stroke="none" font-family="Arial" font-size="24px" font-style="normal" font-weight="normal" text-decoration="none" x="800" y="480">UNREGISTERED</text><text fill="#eeeeee" stroke="none" font-family="Arial" font-size="24px" font-style="normal" font-weight="normal" text-decoration="none" x="800" y="510">UNREGISTERED</text><text fill="#eeeeee" stroke="none" font-family="Arial" font-size="24px" font-style="normal" font-weight="normal" text-decoration="none" x="800" y="540">UNREGISTERED</text><g transform="translate(-30,-110) scale(1,1)"><path fill="#ffffff" stroke="none" d="M 522.3302487571023 572.6800000000001 C 522.3302487571023 567.8861679360001 526.2160910820477 564 531.009521484375 564 C 535.8029518867023 564 539.6887942116477 567.8861679360001 539.6887942116477 572.6800000000001 C 539.6887942116477 577.473832064 535.8029518867023 581.36 531.009521484375 581.36 C 526.2160910820477 581.36 522.3302487571023 577.473832064 522.3302487571023 572.6800000000001 Z"/></g><g transform="translate(-30,-110) scale(1,1)"><path fill="none" stroke="#000000" d="M 522.3302487571023 572.6800000000001 C 522.3302487571023 567.8861679360001 526.2160910820477 564 531.009521484375 564 C 535.8029518867023 564 539.6887942116477 567.8861679360001 539.6887942116477 572.6800000000001 C 539.6887942116477 577.473832064 535.8029518867023 581.36 531.009521484375 581.36 C 526.2160910820477 581.36 522.3302487571023 577.473832064 522.3302487571023 572.6800000000001 Z" stroke-miterlimit="10"/></g><g transform="translate(-30,-110) scale(1,1)"><path fill="none" stroke="#000000" d="M 531.009521484375 581.36 L 531.009521484375 598.64" stroke-miterlimit="10"/></g><g transform="translate(-30,-110) scale(1,1)"><path fill="none" stroke="#000000" d="M 521.8197033025568 587.84 L 540.1993396661932 587.84" stroke-miterlimit="10"/></g><g transform="translate(-30,-110) scale(1,1)"><path fill="none" stroke="#000000" d="M 531.009521484375 598.64 L 518.2458851207386 616" stroke-miterlimit="10"/></g><g transform="translate(-30,-110) scale(1,1)"><path fill="none" stroke="#000000" d="M 531.009521484375 598.64 L 543.7731578480114 616" stroke-miterlimit="10"/></g><g transform="translate(-30,-110) scale(1,1)"><g><path fill="none" stroke="none"/><text fill="#000000" stroke="none" font-family="Arial" font-size="13px" font-style="normal" font-weight="bold" text-decoration="none" x="500.302734375" y="636.5">CallCenter</text></g></g><g transform="translate(-30,-110) scale(1,1)"><rect fill="#C0C0C0" stroke="none" x="469" y="266" width="99.20000000000005" height="15" opacity="0.2"/></g><g transform="translate(-30,-110) scale(1,1)"><rect fill="#C0C0C0" stroke="none" x="469" y="280" width="248" height="194" opacity="0.2"/></g><g transform="translate(-30,-110) scale(1,1)"><rect fill="#ffffff" stroke="none" x="462" y="274" width="248" height="193"/></g><g transform="translate(-30,-110) scale(1,1)"><path fill="none" stroke="#000000" d="M 462 274 L 710 274 L 710 467 L 462 467 L 462 274 Z Z" stroke-miterlimit="10"/></g><g transform="translate(-30,-110) scale(1,1)"><rect fill="#ffffff" stroke="none" x="462" y="259" width="99.20000000000005" height="15"/></g><g transform="translate(-30,-110) scale(1,1)"><path fill="none" stroke="#000000" d="M 462 259 L 561.2 259 L 561.2 274 L 462 274 L 462 259 Z Z" stroke-miterlimit="10"/></g><g transform="translate(-30,-110) scale(1,1)"><rect fill="#ffffff" stroke="none" x="462" y="273" width="248" height="194"/></g><g transform="translate(-30,-110) scale(1,1)"><path fill="none" stroke="#000000" d="M 462 273 L 710 273 L 710 467 L 462 467 L 462 273 Z Z" stroke-miterlimit="10"/></g><g transform="translate(-30,-110) scale(1,1)"><g><path fill="none" stroke="none"/><text fill="#000000" stroke="none" font-family="Arial" font-size="13px" font-style="normal" font-weight="bold" text-decoration="none" x="561.06640625" y="293.5">Llamada</text></g></g><g transform="translate(-30,-110) scale(1,1)"><path fill="#C0C0C0" stroke="none" d="M 509 331 C 509 321.6111584 548.8466528 314 598 314 C 647.1533472 314 687 321.6111584 687 331 C 687 340.3888416 647.1533472 348 598 348 C 548.8466528 348 509 340.3888416 509 331 Z" opacity="0.2"/></g><g transform="translate(-30,-110) scale(1,1)"><path fill="#ffffff" stroke="none" d="M 502 324 C 502 314.6111584 541.8466528 307 591 307 C 640.1533472 307 680 314.6111584 680 324 C 680 333.3888416 640.1533472 341 591 341 C 541.8466528 341 502 333.3888416 502 324 Z"/></g><g transform="translate(-30,-110) scale(1,1)"><path fill="none" stroke="#000000" d="M 502 324 C 502 314.6111584 541.8466528 307 591 307 C 640.1533472 307 680 314.6111584 680 324 C 680 333.3888416 640.1533472 341 591 341 C 541.8466528 341 502 333.3888416 502 324 Z" stroke-miterlimit="10"/></g><g transform="translate(-30,-110) scale(1,1)"><g><path fill="none" stroke="none"/><text fill="#000000" stroke="none" font-family="Arial" font-size="13px" font-style="normal" font-weight="bold" text-decoration="none" x="536.451416015625" y="331">InformarCostoReal</text></g></g><g transform="translate(-30,-110) scale(1,1)"><path fill="#C0C0C0" stroke="none" d="M 501 387 C 501 377.6111584 544.2045168 370 597.5 370 C 650.7954832 370 694 377.6111584 694 387 C 694 396.3888416 650.7954832 404 597.5 404 C 544.2045168 404 501 396.3888416 501 387 Z" opacity="0.2"/></g><g transform="translate(-30,-110) scale(1,1)"><path fill="#ffffff" stroke="none" d="M 494 380 C 494 370.6111584 537.2045168 363 590.5 363 C 643.7954832 363 687 370.6111584 687 380 C 687 389.3888416 643.7954832 397 590.5 397 C 537.2045168 397 494 389.3888416 494 380 Z"/></g><g transform="translate(-30,-110) scale(1,1)"><path fill="none" stroke="#000000" d="M 494 380 C 494 370.6111584 537.2045168 363 590.5 363 C 643.7954832 363 687 370.6111584 687 380 C 687 389.3888416 643.7954832 397 590.5 397 C 537.2045168 397 494 389.3888416 494 380 Z" stroke-miterlimit="10"/></g><g transform="translate(-30,-110) scale(1,1)"><g><path fill="none" stroke="none"/><text fill="#000000" stroke="none" font-family="Arial" font-size="13px" font-style="normal" font-weight="bold" text-decoration="none" x="530.8955078125" y="387">InformarFechaRetiro</text></g></g><g transform="translate(-30,-110) scale(1,1)"><path fill="#C0C0C0" stroke="none" d="M 517 435 C 517 425.6111584 553.7126464 418 599 418 C 644.2873536 418 681 425.6111584 681 435 C 681 444.3888416 644.2873536 452 599 452 C 553.7126464 452 517 444.3888416 517 435 Z" opacity="0.2"/></g><g transform="translate(-30,-110) scale(1,1)"><path fill="#ffffff" stroke="none" d="M 510 428 C 510 418.6111584 546.7126464 411 592 411 C 637.2873536 411 674 418.6111584 674 428 C 674 437.3888416 637.2873536 445 592 445 C 546.7126464 445 510 437.3888416 510 428 Z"/></g><g transform="translate(-30,-110) scale(1,1)"><path fill="none" stroke="#000000" d="M 510 428 C 510 418.6111584 546.7126464 411 592 411 C 637.2873536 411 674 418.6111584 674 428 C 674 437.3888416 637.2873536 445 592 445 C 546.7126464 445 510 437.3888416 510 428 Z" stroke-miterlimit="10"/></g><g transform="translate(-30,-110) scale(1,1)"><g><path fill="none" stroke="none"/><text fill="#000000" stroke="none" font-family="Arial" font-size="13px" font-style="normal" font-weight="bold" text-decoration="none" x="542.5009765625" y="435">AsignarOperador</text></g></g><g transform="translate(-30,-110) scale(1,1)"><path fill="none" stroke="#000000" d="M 545 562 L 586 446" stroke-miterlimit="10"/></g><g transform="translate(-30,-110) scale(1,1)"><path fill="#ffffff" stroke="none" d="M 839.0770749289773 340.68 C 839.0770749289773 335.886167936 842.9629172539227 332 847.75634765625 332 C 852.5497780585773 332 856.4356203835227 335.886167936 856.4356203835227 340.68 C 856.4356203835227 345.473832064 852.5497780585773 349.36 847.75634765625 349.36 C 842.9629172539227 349.36 839.0770749289773 345.473832064 839.0770749289773 340.68 Z"/></g><g transform="translate(-30,-110) scale(1,1)"><path fill="none" stroke="#000000" d="M 839.0770749289773 340.68 C 839.0770749289773 335.886167936 842.9629172539227 332 847.75634765625 332 C 852.5497780585773 332 856.4356203835227 335.886167936 856.4356203835227 340.68 C 856.4356203835227 345.473832064 852.5497780585773 349.36 847.75634765625 349.36 C 842.9629172539227 349.36 839.0770749289773 345.473832064 839.0770749289773 340.68 Z" stroke-miterlimit="10"/></g><g transform="translate(-30,-110) scale(1,1)"><path fill="none" stroke="#000000" d="M 847.75634765625 349.36 L 847.75634765625 366.64" stroke-miterlimit="10"/></g><g transform="translate(-30,-110) scale(1,1)"><path fill="none" stroke="#000000" d="M 838.5665294744318 355.84 L 856.9461658380682 355.84" stroke-miterlimit="10"/></g><g transform="translate(-30,-110) scale(1,1)"><path fill="none" stroke="#000000" d="M 847.75634765625 366.64 L 834.9927112926136 384" stroke-miterlimit="10"/></g><g transform="translate(-30,-110) scale(1,1)"><path fill="none" stroke="#000000" d="M 847.75634765625 366.64 L 860.5199840198864 384" stroke-miterlimit="10"/></g><g transform="translate(-30,-110) scale(1,1)"><g><path fill="none" stroke="none"/><text fill="#000000" stroke="none" font-family="Arial" font-size="13px" font-style="normal" font-weight="bold" text-decoration="none" x="820.29638671875" y="404.5">Operador</text></g></g><g transform="translate(-30,-110) scale(1,1)"><path fill="none" stroke="#000000" d="M 671 410 L 813 378" stroke-miterlimit="10"/></g><g transform="translate(-30,-110) scale(1,1)"><path fill="none" stroke="#000000" d="M 804.0113601352352 384.340690292197 L 813 378 L 802.1605266949649 376.12761690099734" stroke-miterlimit="10"/></g><g transform="translate(-30,-110) scale(1,1)"><path fill="none" stroke="#000000" d="M 681 340 L 813 364" stroke-miterlimit="10"/></g><g transform="translate(-30,-110) scale(1,1)"><path fill="none" stroke="#000000" d="M 688 376 L 813 371" stroke-miterlimit="10"/></g><g transform="translate(-30,-110) scale(1,1)"><rect fill="#C0C0C0" stroke="none" x="47" y="127" width="156.8" height="15" opacity="0.2"/></g><g transform="translate(-30,-110) scale(1,1)"><rect fill="#C0C0C0" stroke="none" x="47" y="141" width="392" height="306" opacity="0.2"/></g><g transform="translate(-30,-110) scale(1,1)"><rect fill="#ffffff" stroke="none" x="40" y="135" width="392" height="305"/></g><g transform="translate(-30,-110) scale(1,1)"><path fill="none" stroke="#000000" d="M 40 135 L 432 135 L 432 440 L 40 440 L 40 135 Z Z" stroke-miterlimit="10"/></g><g transform="translate(-30,-110) scale(1,1)"><rect fill="#ffffff" stroke="none" x="40" y="120" width="156.8" height="15"/></g><g transform="translate(-30,-110) scale(1,1)"><path fill="none" stroke="#000000" d="M 40 120 L 196.8 120 L 196.8 135 L 40 135 L 40 120 Z Z" stroke-miterlimit="10"/></g><g transform="translate(-30,-110) scale(1,1)"><rect fill="#ffffff" stroke="none" x="40" y="134" width="392" height="306"/></g><g transform="translate(-30,-110) scale(1,1)"><path fill="none" stroke="#000000" d="M 40 134 L 432 134 L 432 440 L 40 440 L 40 134 Z Z" stroke-miterlimit="10"/></g><g transform="translate(-30,-110) scale(1,1)"><g><path fill="none" stroke="none"/><text fill="#000000" stroke="none" font-family="Arial" font-size="13px" font-style="normal" font-weight="bold" text-decoration="none" x="212.155029296875" y="154.5">Proceso</text></g></g><g transform="translate(-30,-110) scale(1,1)"><g><path fill="none" stroke="none"/><text fill="#000000" stroke="none" font-family="Arial" font-size="13px" font-style="normal" font-weight="normal" text-decoration="none" x="168.81640625" y="169.5">(from Use Case Model)</text></g></g><g transform="translate(-30,-110) scale(1,1)"><path fill="none" stroke="#000000" d="M 517 306 L 405 279" stroke-miterlimit="10" stroke-dasharray="3"/></g><g transform="translate(-30,-110) scale(1,1)"><path fill="none" stroke="#000000" d="M 415.8661816742648 277.2894165258975 L 405 279 L 413.89311592180115 285.4739855731541" stroke-miterlimit="10"/></g><g transform="translate(-30,-110) scale(1,1)"><g><path fill="none" stroke="none"/><text fill="#000000" stroke="none" font-family="Arial" font-size="13px" font-style="normal" font-weight="normal" text-decoration="none" x="427.5" y="327.5">«extend»</text></g></g><g transform="translate(-30,-110) scale(1,1)"><path fill="none" stroke="#000000" d="M 511 362 L 432 344 L 313 279" stroke-miterlimit="10" stroke-dasharray="3"/></g><g transform="translate(-30,-110) scale(1,1)"><path fill="none" stroke="#000000" d="M 323.9368127476855 280.1773389155479 L 313 279 L 319.90099012751716 287.56599878939465" stroke-miterlimit="10"/></g><g transform="translate(-30,-110) scale(1,1)"><g><path fill="none" stroke="none"/><text fill="#000000" stroke="none" font-family="Arial" font-size="13px" font-style="normal" font-weight="normal" text-decoration="none" x="390.5" y="376.5">«extend»</text></g></g><g transform="translate(-30,-110) scale(1,1)"><path fill="#C0C0C0" stroke="none" d="M 71 232 C 71 218.19288 150.00861614374998 207 247.470703125 207 C 344.93279010625 207 423.94140625 218.19288 423.94140625 232 C 423.94140625 245.80712 344.93279010625 257 247.470703125 257 C 150.00861614374998 257 71 245.80712 71 232 Z" opacity="0.2"/></g><g transform="translate(-30,-110) scale(1,1)"><path fill="#ffffff" stroke="none" d="M 64 225 C 64 211.19288 143.00861614374998 200 240.470703125 200 C 337.93279010625 200 416.94140625 211.19288 416.94140625 225 C 416.94140625 238.80712 337.93279010625 250 240.470703125 250 C 143.00861614374998 250 64 238.80712 64 225 Z"/></g><g transform="translate(-30,-110) scale(1,1)"><path fill="none" stroke="#000000" d="M 64 225 C 64 211.19288 143.00861614374998 200 240.470703125 200 C 337.93279010625 200 416.94140625 211.19288 416.94140625 225 C 416.94140625 238.80712 337.93279010625 250 240.470703125 250 C 143.00861614374998 250 64 238.80712 64 225 Z" stroke-miterlimit="10"/></g><g transform="translate(-30,-110) scale(1,1)"><path fill="none" stroke="#000000" d="M 64 255 L 416.94140625 255" stroke-miterlimit="10"/></g><g transform="translate(-30,-110) scale(1,1)"><g><path fill="none" stroke="none"/><text fill="#000000" stroke="none" font-family="Arial" font-size="13px" font-style="normal" font-weight="bold" text-decoration="none" x="208.681640625" y="227">AbrirOrden</text></g></g><g transform="translate(-30,-110) scale(1,1)"><g><path fill="none" stroke="none"/><text fill="#000000" stroke="none" font-family="Arial" font-size="13px" font-style="normal" font-weight="normal" text-decoration="none" x="197.49072265625" y="242">(from Proceso)</text></g></g><g transform="translate(-30,-110) scale(1,1)"><g><path fill="none" stroke="none"/><text fill="#000000" stroke="none" font-family="Arial" font-size="13px" font-style="normal" font-weight="normal" text-decoration="none" x="69" y="272.5">Registrar actividades y observaciones mientras esté abierta</text></g></g><g transform="translate(-30,-110) scale(1,1)"><path fill="#C0C0C0" stroke="none" d="M 159 378.5 C 159 363.312168 188.9969184 351 226 351 C 263.0030816 351 293 363.312168 293 378.5 C 293 393.687832 263.0030816 406 226 406 C 188.9969184 406 159 393.687832 159 378.5 Z" opacity="0.2"/></g><g transform="translate(-30,-110) scale(1,1)"><path fill="#ffffff" stroke="none" d="M 152 371.5 C 152 356.312168 181.9969184 344 219 344 C 256.0030816 344 286 356.312168 286 371.5 C 286 386.687832 256.0030816 399 219 399 C 181.9969184 399 152 386.687832 152 371.5 Z"/></g><g transform="translate(-30,-110) scale(1,1)"><path fill="none" stroke="#000000" d="M 152 371.5 C 152 356.312168 181.9969184 344 219 344 C 256.0030816 344 286 356.312168 286 371.5 C 286 386.687832 256.0030816 399 219 399 C 181.9969184 399 152 386.687832 152 371.5 Z" stroke-miterlimit="10"/></g><g transform="translate(-30,-110) scale(1,1)"><g><path fill="none" stroke="none"/><text fill="#000000" stroke="none" font-family="Arial" font-size="13px" font-style="normal" font-weight="bold" text-decoration="none" x="182.516845703125" y="371">CerrarOrden</text></g></g><g transform="translate(-30,-110) scale(1,1)"><g><path fill="none" stroke="none"/><text fill="#000000" stroke="none" font-family="Arial" font-size="13px" font-style="normal" font-weight="normal" text-decoration="none" x="176.02001953125" y="386">(from Proceso)</text></g></g><g transform="translate(-30,-110) scale(1,1)"><path fill="none" stroke="#000000" d="M 258 400 L 493 574" stroke-miterlimit="10"/></g><g transform="translate(-30,-110) scale(1,1)"><path fill="none" stroke="#000000" d="M 482.3275459902275 571.3356566645248 L 493 574 L 487.3374106377121 564.5694601578646" stroke-miterlimit="10"/></g><g transform="translate(-30,-110) scale(1,1)"><g><path fill="none" stroke="none"/><text fill="#000000" stroke="none" font-family="Arial" font-size="13px" font-style="normal" font-weight="normal" text-decoration="none" x="362.5" y="480.5">+Email</text></g></g><g transform="translate(-30,-110) scale(1,1)"><path fill="none" stroke="#000000" d="M 234 279 L 223 343" stroke-miterlimit="10" stroke-dasharray="3"/></g><g transform="translate(-30,-110) scale(1,1)"><path fill="none" stroke="#000000" d="M 220.57278229279868 332.271131737138 L 223 343 L 228.87015340294877 333.697242396695" stroke-miterlimit="10"/></g><g transform="translate(-30,-110) scale(1,1)"><g><path fill="none" stroke="none"/><text fill="#000000" stroke="none" font-family="Arial" font-size="13px" font-style="normal" font-weight="normal" text-decoration="none" x="229.5" y="321.5">«include»</text></g></g></g></svg>