<svg version="1.1" xmlns="http://www.w3.org/2000/svg" xmlns:xlink="http://www.w3.org/1999/xlink" width="868" height="606"><defs/><g><text fill="#eeeeee" stroke="none" font-family="Arial" font-size="24px" font-style="normal" font-weight="normal" text-decoration="none" x="0" y="0">UNREGISTERED</text><text fill="#eeeeee" stroke="none" font-family="Arial" font-size="24px" font-style="normal" font-weight="normal" text-decoration="none" x="0" y="30">UNREGISTERED</text><text fill="#eeeeee" stroke="none" font-family="Arial" font-size="24px" font-style="normal" font-weight="normal" text-decoration="none" x="0" y="60">UNREGISTERED</text><text fill="#eeeeee" stroke="none" font-family="Arial" font-size="24px" font-style="normal" font-weight="normal" text-decoration="none" x="0" y="90">UNREGISTERED</text><text fill="#eeeeee" stroke="none" font-family="Arial" font-size="24px" font-style="normal" font-weight="normal" text-decoration="none" x="0" y="120">UNREGISTERED</text><text fill="#eeeeee" stroke="none" font-family="Arial" font-size="24px" font-style="normal" font-weight="normal" text-decoration="none" x="0" y="150">UNREGISTERED</text><text fill="#eeeeee" stroke="none" font-family="Arial" font-size="24px" font-style="normal" font-weight="normal" text-decoration="none" x="0" y="180">UNREGISTERED</text><text fill="#eeeeee" stroke="none" font-family="Arial" font-size="24px" font-style="normal" font-weight="normal" text-decoration="none" x="0" y="210">UNREGISTERED</text><text fill="#eeeeee" stroke="none" font-family="Arial" font-size="24px" font-style="normal" font-weight="normal" text-decoration="none" x="0" y="240">UNREGISTERED</text><text fill="#eeeeee" stroke="none" font-family="Arial" font-size="24px" font-style="normal" font-weight="normal" text-decoration="none" x="0" y="270">UNREGISTERED</text><text fill="#eeeeee" stroke="none" font-family="Arial" font-size="24px" font-style="normal" font-weight="normal" text-decoration="none" x="0" y="300">UNREGISTERED</text><text fill="#eeeeee" stroke="none" font-family="Arial" font-size="24px" font-style="normal" font-weight="normal" text-decoration="none" x="0" y="330">UNREGISTERED</text><text fill="#eeeeee" stroke="none" font-family="Arial" font-size="24px" font-style="normal" font-weight="normal" text-decoration="none" x="0" y="360">UNREGISTERED</text><text fill="#eeeeee" stroke="none" font-family="Arial" font-size="24px" font-style="normal" font-weight="normal" text-decoration="none" x="0" y="390">UNREGISTERED</text><text fill="#eeeeee" stroke="none" font-family="Arial" font-size="24px" font-style="normal" font-weight="normal" text-decoration="none" x="0" y="420">UNREGISTERED</text><text fill="#eeeeee" stroke="none" font-family="Arial" font-size="24px" font-style="normal" font-weight="normal" text-decoration="none" x="0" y="450">UNREGISTERED</text><text fill="#eeeeee" stroke="none" font-family="Arial" font-size="24px" font-style="normal" font-weight="normal" text-decoration="none" x="0" y="480">UNREGISTERED</text><text fill="#eeeeee" stroke="none" font-family="Arial" font-size="24px" font-style="normal" font-weight="normal" text-decoration="none" x="0" y="510">UNREGISTERED</text><text fill="#eeeeee" stroke="none" font-family="Arial" font-size="24px" font-style="normal" font-weight="normal" text-decoration="none" x="0" y="540">UNREGISTERED</text><text fill="#eeeeee" stroke="none" font-family="Arial" font-size="24px" font-style="normal" font-weight="normal" text-decoration="none" x="0" y="570">UNREGISTERED</text><text fill="#eeeeee" stroke="none" font-family="Arial" font-size="24px" font-style="normal" font-weight="normal" text-decoration="none" x="0" y="600">UNREGISTERED</text><text fill="#eeeeee" stroke="none" font-family="Arial" font-size="24px" font-style="normal" font-weight="normal" text-decoration="none" x="200" y="0">UNREGISTERED</text><text fill="#eeeeee" stroke="none" font-family="Arial" font-size="24px" font-style="normal" font-weight="normal" text-decoration="none" x="200" y="30">UNREGISTERED</text><text fill="#eeeeee" stroke="none" font-family="Arial" font-size="24px" font-style="normal" font-weight="normal" text-decoration="none" x="200" y="60">UNREGISTERED</text><text fill="#eeeeee" stroke="none" font-family="Arial" font-size="24px" font-style="normal" font-weight="normal" text-decoration="none" x="200" y="90">UNREGISTERED</text><text fill="#eeeeee" stroke="none" font-family="Arial" font-size="24px" font-style="normal" font-weight="normal" text-decoration="none" x="200" y="120">UNREGISTERED</text><text fill="#eeeeee" stroke="none" font-family="Arial" font-size="24px" font-style="normal" font-weight="normal" text-decoration="none" x="200" y="150">UNREGISTERED</text><text fill="#eeeeee" stroke="none" font-family="Arial" font-size="24px" font-style="normal" font-weight="normal" text-decoration="none" x="200" y="180">UNREGISTERED</text><text fill="#eeeeee" stroke="none" font-family="Arial" font-size="24px" font-style="normal" font-weight="normal" text-decoration="none" x="200" y="210">UNREGISTERED</text><text fill="#eeeeee" stroke="none" font-family="Arial" font-size="24px" font-style="normal" font-weight="normal" text-decoration="none" x="200" y="240">UNREGISTERED</text><text fill="#eeeeee" stroke="none" font-family="Arial" font-size="24px" font-style="normal" font-weight="normal" text-decoration="none" x="200" y="270">UNREGISTERED</text><text fill="#eeeeee" stroke="none" font-family="Arial" font-size="24px" font-style="normal" font-weight="normal" text-decoration="none" x="200" y="300">UNREGISTERED</text><text fill="#eeeeee" stroke="none" font-family="Arial" font-size="24px" font-style="normal" font-weight="normal" text-decoration="none" x="200" y="330">UNREGISTERED</text><text fill="#eeeeee" stroke="none" font-family="Arial" font-size="24px" font-style="normal" font-weight="normal" text-decoration="none" x="200" y="360">UNREGISTERED</text><text fill="#eeeeee" stroke="none" font-family="Arial" font-size="24px" font-style="normal" font-weight="normal" text-decoration="none" x="200" y="390">UNREGISTERED</text><text fill="#eeeeee" stroke="none" font-family="Arial" font-size="24px" font-style="normal" font-weight="normal" text-decoration="none" x="200" y="420">UNREGISTERED</text><text fill="#eeeeee" stroke="none" font-family="Arial" font-size="24px" font-style="normal" font-weight="normal" text-decoration="none" x="200" y="450">UNREGISTERED</text><text fill="#eeeeee" stroke="none" font-family="Arial" font-size="24px" font-style="normal" font-weight="normal" text-decoration="none" x="200" y="480">UNREGISTERED</text><text fill="#eeeeee" stroke="none" font-family="Arial" font-size="24px" font-style="normal" font-weight="normal" text-decoration="none" x="200" y="510">UNREGISTERED</text><text fill="#eeeeee" stroke="none" font-family="Arial" font-size="24px" font-style="normal" font-weight="normal" text-decoration="none" x="200" y="540">UNREGISTERED</text><text fill="#eeeeee" stroke="none" font-family="Arial" font-size="24px" font-style="normal" font-weight="normal" text-decoration="none" x="200" y="570">UNREGISTERED</text><text fill="#eeeeee" stroke="none" font-family="Arial" font-size="24px" font-style="normal" font-weight="normal" text-decoration="none" x="200" y="600">UNREGISTERED</text><text fill="#eeeeee" stroke="none" font-family="Arial" font-size="24px" font-style="normal" font-weight="normal" text-decoration="none" x="400" y="0">UNREGISTERED</text><text fill="#eeeeee" stroke="none" font-family="Arial" font-size="24px" font-style="normal" font-weight="normal" text-decoration="none" x="400" y="30">UNREGISTERED</text><text fill="#eeeeee" stroke="none" font-family="Arial" font-size="24px" font-style="normal" font-weight="normal" text-decoration="none" x="400" y="60">UNREGISTERED</text><text fill="#eeeeee" stroke="none" font-family="Arial" font-size="24px" font-style="normal" font-weight="normal" text-decoration="none" x="400" y="90">UNREGISTERED</text><text fill="#eeeeee" stroke="none" font-family="Arial" font-size="24px" font-style="normal" font-weight="normal" text-decoration="none" x="400" y="120">UNREGISTERED</text><text fill="#eeeeee" stroke="none" font-family="Arial" font-size="24px" font-style="normal" font-weight="normal" text-decoration="none" x="400" y="150">UNREGISTERED</text><text fill="#eeeeee" stroke="none" font-family="Arial" font-size="24px" font-style="normal" font-weight="normal" text-decoration="none" x="400" y="180">UNREGISTERED</text><text fill="#eeeeee" stroke="none" font-family="Arial" font-size="24px" font-style="normal" font-weight="normal" text-decoration="none" x="400" y="210">UNREGISTERED</text><text fill="#eeeeee" stroke="none" font-family="Arial" font-size="24px" font-style="normal" font-weight="normal" text-decoration="none" x="400" y="240">UNREGISTERED</text><text fill="#eeeeee" stroke="none" font-family="Arial" font-size="24px" font-style="normal" font-weight="normal" text-decoration="none" x="400" y="270">UNREGISTERED</text><text fill="#eeeeee" stroke="none" font-family="Arial" font-size="24px" font-style="normal" font-weight="normal" text-decoration="none" x="400" y="300">UNREGISTERED</text><text fill="#eeeeee" stroke="none" font-family="Arial" font-size="24px" font-style="normal" font-weight="normal" text-decoration="none" x="400" y="330">UNREGISTERED</text><text fill="#eeeeee" stroke="none" font-family="Arial" font-size="24px" font-style="normal" font-weight="normal" text-decoration="none" x="400" y="360">UNREGISTERED</text><text fill="#eeeeee" stroke="none" font-family="Arial" font-size="24px" font-style="normal" font-weight="normal" text-decoration="none" x="400" y="390">UNREGISTERED</text><text fill="#eeeeee" stroke="none" font-family="Arial" font-size="24px" font-style="normal" font-weight="normal" text-decoration="none" x="400" y="420">UNREGISTERED</text><text fill="#eeeeee" stroke="none" font-family="Arial" font-size="24px" font-style="normal" font-weight="normal" text-decoration="none" x="400" y="450">UNREGISTERED</text><text fill="#eeeeee" stroke="none" font-family="Arial" font-size="24px" font-style="normal" font-weight="normal" text-decoration="none" x="400" y="480">UNREGISTERED</text><text fill="#eeeeee" stroke="none" font-family="Arial" font-size="24px" font-style="normal" font-weight="normal" text-decoration="none" x="400" y="510">UNREGISTERED</text><text fill="#eeeeee" stroke="none" font-family="Arial" font-size="24px" font-style="normal" font-weight="normal" text-decoration="none" x="400" y="540">UNREGISTERED</text><text fill="#eeeeee" stroke="none" font-family="Arial" font-size="24px" font-style="normal" font-weight="normal" text-decoration="none" x="400" y="570">UNREGISTERED</text><text fill="#eeeeee" stroke="none" font-family="Arial" font-size="24px" font-style="normal" font-weight="normal" text-decoration="none" x="400" y="600">UNREGISTERED</text><text fill="#eeeeee" stroke="none" font-family="Arial" font-size="24px" font-style="normal" font-weight="normal" text-decoration="none" x="600" y="0">UNREGISTERED</text><text fill="#eeeeee" stroke="none" font-family="Arial" font-size="24px" font-style="normal" font-weight="normal" text-decoration="none" x="600" y="30">UNREGISTERED</text><text fill="#eeeeee" stroke="none" font-family="Arial" font-size="24px" font-style="normal" font-weight="normal" text-decoration="none" x="600" y="60">UNREGISTERED</text><text fill="#eeeeee" stroke="none" font-family="Arial" font-size="24px" font-style="normal" font-weight="normal" text-decoration="none" x="600" y="90">UNREGISTERED</text><text fill="#eeeeee" stroke="none" font-family="Arial" font-size="24px" font-style="normal" font-weight="normal" text-decoration="none" x="600" y="120">UNREGISTERED</text><text fill="#eeeeee" stroke="none" font-family="Arial" font-size="24px" font-style="normal" font-weight="normal" text-decoration="none" x="600" y="150">UNREGISTERED</text><text fill="#eeeeee" stroke="none" font-family="Arial" font-size="24px" font-style="normal" font-weight="normal" text-decoration="none" x="600" y="180">UNREGISTERED</text><text fill="#eeeeee" stroke="none" font-family="Arial" font-size="24px" font-style="normal" font-weight="normal" text-decoration="none" x="600" y="210">UNREGISTERED</text><text fill="#eeeeee" stroke="none" font-family="Arial" font-size="24px" font-style="normal" font-weight="normal" text-decoration="none" x="600" y="240">UNREGISTERED</text><text fill="#eeeeee" stroke="none" font-family="Arial" font-size="24px" font-style="normal" font-weight="normal" text-decoration="none" x="600" y="270">UNREGISTERED</text><text fill="#eeeeee" stroke="none" font-family="Arial" font-size="24px" font-style="normal" font-weight="normal" text-decoration="none" x="600" y="300">UNREGISTERED</text><text fill="#eeeeee" stroke="none" font-family="Arial" font-size="24px" font-style="normal" font-weight="normal" text-decoration="none" x="600" y="330">UNREGISTERED</text><text fill="#eeeeee" stroke="none" font-family="Arial" font-size="24px" font-style="normal" font-weight="normal" text-decoration="none" x="600" y="360">UNREGISTERED</text><text fill="#eeeeee" stroke="none" font-family="Arial" font-size="24px" font-style="normal" font-weight="normal" text-decoration="none" x="600" y="390">UNREGISTERED</text><text fill="#eeeeee" stroke="none" font-family="Arial" font-size="24px" font-style="normal" font-weight="normal" text-decoration="none" x="600" y="420">UNREGISTERED</text><text fill="#eeeeee" stroke="none" font-family="Arial" font-size="24px" font-style="normal" font-weight="normal" text-decoration="none" x="600" y="450">UNREGISTERED</text><text fill="#eeeeee" stroke="none" font-family="Arial" font-size="24px" font-style="normal" font-weight="normal" text-decoration="none" x="600" y="480">UNREGISTERED</text><text fill="#eeeeee" stroke="none" font-family="Arial" font-size="24px" font-style="normal" font-weight="normal" text-decoration="none" x="600" y="510">UNREGISTERED</text><text fill="#eeeeee" stroke="none" font-family="Arial" font-size="24px" font-style="normal" font-weight="normal" text-decoration="none" x="600" y="540">UNREGISTERED</text><text fill="#eeeeee" stroke="none" font-family="Arial" font-size="24px" font-style="normal" font-weight="normal" text-decoration="none" x="600" y="570">UNREGISTERED</text><text fill="#eeeeee" stroke="none" font-family="Arial" font-size="24px" font-style="normal" font-weight="normal" text-decoration="none" x="600" y="600">UNREGISTERED</text><text fill="#eeeeee" stroke="none" font-family="Arial" font-size="24px" font-style="normal" font-weight="normal" text-decoration="none" x="800" y="0">UNREGISTERED</text><text fill="#eeeeee" stroke="none" font-family="Arial" font-size="24px" font-style="normal" font-weight="normal" text-decoration="none" x="800" y="30">UNREGISTERED</text><text fill="#eeeeee" stroke="none" font-family="Arial" font-size="24px" font-style="normal" font-weight="normal" text-decoration="none" x="800" y="60">UNREGISTERED</text><text fill="#eeeeee" stroke="none" font-family="Arial" font-size="24px" font-style="normal" font-weight="normal" text-decoration="none" x="800" y="90">UNREGISTERED</text><text fill="#eeeeee" stroke="none" font-family="Arial" font-size="24px" font-style="normal" font-weight="normal" text-decoration="none" x="800" y="120">UNREGISTERED</text><text fill="#eeeeee" stroke="none" font-family="Arial" font-size="24px" font-style="normal" font-weight="normal" text-decoration="none" x="800" y="150">UNREGISTERED</text><text fill="#eeeeee" stroke="none" font-family="Arial" font-size="24px" font-style="normal" font-weight="normal" text-decoration="none" x="800" y="180">UNREGISTERED</text><text fill="#eeeeee" stroke="none" font-family="Arial" font-size="24px" font-style="normal" font-weight="normal" text-decoration="none" x="800" y="210">UNREGISTERED</text><text fill="#eeeeee" stroke="none" font-family="Arial" font-size="24px" font-style="normal" font-weight="normal" text-decoration="none" x="800" y="240">UNREGISTERED</text><text fill="#eeeeee" stroke="none" font-family="Arial" font-size="24px" font-style="normal" font-weight="normal" text-decoration="none" x="800" y="270">UNREGISTERED</text><text fill="#eeeeee" stroke="none" font-family="Arial" font-size="24px" font-style="normal" font-weight="normal" text-decoration="none" x="800" y="300">UNREGISTERED</text><text fill="#eeeeee" stroke="none" font-family="Arial" font-size="24px" font-style="normal" font-weight="normal" text-decoration="none" x="800" y="330">UNREGISTERED</text><text fill="#eeeeee" stroke="none" font-family="Arial" font-size="24px" font-style="normal" font-weight="normal" text-decoration="none" x="800" y="360">UNREGISTERED</text><text fill="#eeeeee" stroke="none" font-family="Arial" font-size="24px" font-style="normal" font-weight="normal" text-decoration="none" x="800" y="390">UNREGISTERED</text><text fill="#eeeeee" stroke="none" font-family="Arial" font-size="24px" font-style="normal" font-weight="normal" text-decoration="none" x="800" y="420">UNREGISTERED</text><text fill="#eeeeee" stroke="none" font-family="Arial" font-size="24px" font-style="normal" font-weight="normal" text-decoration="none" x="800" y="450">UNREGISTERED</text><text fill="#eeeeee" stroke="none" font-family="Arial" font-size="24px" font-style="normal" font-weight="normal" text-decoration="none" x="800" y="480">UNREGISTERED</text><text fill="#eeeeee" stroke="none" font-family="Arial" font-size="24px" font-style="normal" font-weight="normal" text-decoration="none" x="800" y="510">UNREGISTERED</text><text fill="#eeeeee" stroke="none" font-family="Arial" font-size="24px" font-style="normal" font-weight="normal" text-decoration="none" x="800" y="540">UNREGISTERED</text><text fill="#eeeeee" stroke="none" font-family="Arial" font-size="24px" font-style="normal" font-weight="normal" text-decoration="none" x="800" y="570">UNREGISTERED</text><text fill="#eeeeee" stroke="none" font-family="Arial" font-size="24px" font-style="normal" font-weight="normal" text-decoration="none" x="800" y="600">UNREGISTERED</text><g transform="translate(-190,-92) scale(1,1)"><rect fill="#C0C0C0" stroke="none" x="590" y="149" width="121.60000000000002" height="15" opacity="0.2"/></g><g transform="translate(-190,-92) scale(1,1)"><rect fill="#C0C0C0" stroke="none" x="590" y="163" width="304" height="234" opacity="0.2"/></g><g transform="translate(-190,-92) scale(1,1)"><rect fill="#ffffff" stroke="none" x="583" y="157" width="304" height="233"/></g><g transform="translate(-190,-92) scale(1,1)"><path fill="none" stroke="#000000" d="M 583 157 L 887 157 L 887 390 L 583 390 L 583 157 Z Z" stroke-miterlimit="10"/></g><g transform="translate(-190,-92) scale(1,1)"><rect fill="#ffffff" stroke="none" x="583" y="142" width="121.60000000000002" height="15"/></g><g transform="translate(-190,-92) scale(1,1)"><path fill="none" stroke="#000000" d="M 583 142 L 704.6 142 L 704.6 157 L 583 157 L 583 142 Z Z" stroke-miterlimit="10"/></g><g transform="translate(-190,-92) scale(1,1)"><rect fill="#ffffff" stroke="none" x="583" y="156" width="304" height="234"/></g><g transform="translate(-190,-92) scale(1,1)"><path fill="none" stroke="#000000" d="M 583 156 L 887 156 L 887 390 L 583 390 L 583 156 Z Z" stroke-miterlimit="10"/></g><g transform="translate(-190,-92) scale(1,1)"><g><path fill="none" stroke="none"/><text fill="#000000" stroke="none" font-family="Arial" font-size="13px" font-style="normal" font-weight="bold" text-decoration="none" x="671.044189453125" y="176.5">ConsultaEstadoOrden</text></g></g><g transform="translate(-190,-92) scale(1,1)"><path fill="#C0C0C0" stroke="none" d="M 598 206 C 598 196.6111584 644.7862384 189 702.5 189 C 760.2137616 189 807 196.6111584 807 206 C 807 215.3888416 760.2137616 223 702.5 223 C 644.7862384 223 598 215.3888416 598 206 Z" opacity="0.2"/></g><g transform="translate(-190,-92) scale(1,1)"><path fill="#ffffff" stroke="none" d="M 591 199 C 591 189.6111584 637.7862384 182 695.5 182 C 753.2137616 182 800 189.6111584 800 199 C 800 208.3888416 753.2137616 216 695.5 216 C 637.7862384 216 591 208.3888416 591 199 Z"/></g><g transform="translate(-190,-92) scale(1,1)"><path fill="none" stroke="#000000" d="M 591 199 C 591 189.6111584 637.7862384 182 695.5 182 C 753.2137616 182 800 189.6111584 800 199 C 800 208.3888416 753.2137616 216 695.5 216 C 637.7862384 216 591 208.3888416 591 199 Z" stroke-miterlimit="10"/></g><g transform="translate(-190,-92) scale(1,1)"><g><path fill="none" stroke="none"/><text fill="#000000" stroke="none" font-family="Arial" font-size="13px" font-style="normal" font-weight="bold" text-decoration="none" x="630.471435546875" y="206">IngresarNúmeroOrden</text></g></g><g transform="translate(-190,-92) scale(1,1)"><path fill="#C0C0C0" stroke="none" d="M 598 270 C 598 260.6111584 645.9055264 253 705 253 C 764.0944736 253 812 260.6111584 812 270 C 812 279.3888416 764.0944736 287 705 287 C 645.9055264 287 598 279.3888416 598 270 Z" opacity="0.2"/></g><g transform="translate(-190,-92) scale(1,1)"><path fill="#ffffff" stroke="none" d="M 591 263 C 591 253.6111584 638.9055264 246 698 246 C 757.0944736 246 805 253.6111584 805 263 C 805 272.3888416 757.0944736 280 698 280 C 638.9055264 280 591 272.3888416 591 263 Z"/></g><g transform="translate(-190,-92) scale(1,1)"><path fill="none" stroke="#000000" d="M 591 263 C 591 253.6111584 638.9055264 246 698 246 C 757.0944736 246 805 253.6111584 805 263 C 805 272.3888416 757.0944736 280 698 280 C 638.9055264 280 591 272.3888416 591 263 Z" stroke-miterlimit="10"/></g><g transform="translate(-190,-92) scale(1,1)"><g><path fill="none" stroke="none"/><text fill="#000000" stroke="none" font-family="Arial" font-size="13px" font-style="normal" font-weight="bold" text-decoration="none" x="631.879638671875" y="270">ConsultarEstadoOrden</text></g></g><g transform="translate(-190,-92) scale(1,1)"><path fill="#C0C0C0" stroke="none" d="M 694 334 C 694 324.6111584 739.4430928 317 795.5 317 C 851.5569072 317 897 324.6111584 897 334 C 897 343.3888416 851.5569072 351 795.5 351 C 739.4430928 351 694 343.3888416 694 334 Z" opacity="0.2"/></g><g transform="translate(-190,-92) scale(1,1)"><path fill="#ffffff" stroke="none" d="M 687 327 C 687 317.6111584 732.4430928 310 788.5 310 C 844.5569072 310 890 317.6111584 890 327 C 890 336.3888416 844.5569072 344 788.5 344 C 732.4430928 344 687 336.3888416 687 327 Z"/></g><g transform="translate(-190,-92) scale(1,1)"><path fill="none" stroke="#000000" d="M 687 327 C 687 317.6111584 732.4430928 310 788.5 310 C 844.5569072 310 890 317.6111584 890 327 C 890 336.3888416 844.5569072 344 788.5 344 C 732.4430928 344 687 336.3888416 687 327 Z" stroke-miterlimit="10"/></g><g transform="translate(-190,-92) scale(1,1)"><g><path fill="none" stroke="none"/><text fill="#000000" stroke="none" font-family="Arial" font-size="13px" font-style="normal" font-weight="bold" text-decoration="none" x="725.997802734375" y="334">InformarEstadoOrden</text></g></g><g transform="translate(-190,-92) scale(1,1)"><path fill="none" stroke="#000000" d="M 696 217 L 697 245" stroke-miterlimit="10" stroke-dasharray="3"/></g><g transform="translate(-190,-92) scale(1,1)"><path fill="none" stroke="#000000" d="M 692.4304429001526 234.99404437791003 L 697 245 L 700.8441142603102 234.69355611504727" stroke-miterlimit="10"/></g><g transform="translate(-190,-92) scale(1,1)"><g><path fill="none" stroke="none"/><text fill="#000000" stroke="none" font-family="Arial" font-size="13px" font-style="normal" font-weight="normal" text-decoration="none" x="718.5" y="234.5">«include»</text></g></g><g transform="translate(-190,-92) scale(1,1)"><path fill="none" stroke="#000000" d="M 801 204 L 855 206 L 798 309" stroke-miterlimit="10" stroke-dasharray="3"/></g><g transform="translate(-190,-92) scale(1,1)"><path fill="none" stroke="#000000" d="M 799.2376157798535 298.06984413736666 L 798 309 L 806.6039138403319 302.146339180544" stroke-miterlimit="10"/></g><g transform="translate(-190,-92) scale(1,1)"><g><path fill="none" stroke="none"/><text fill="#000000" stroke="none" font-family="Arial" font-size="13px" font-style="normal" font-weight="normal" text-decoration="none" x="853.5" y="226.5">«include»</text></g></g><g transform="translate(-190,-92) scale(1,1)"><path fill="#ffffff" stroke="none" d="M 397.82072727272725 175.68 C 397.82072727272725 170.886167936 401.70656959767274 167 406.5 167 C 411.29343040232726 167 415.17927272727275 170.886167936 415.17927272727275 175.68 C 415.17927272727275 180.47383206400002 411.29343040232726 184.36 406.5 184.36 C 401.70656959767274 184.36 397.82072727272725 180.47383206400002 397.82072727272725 175.68 Z"/></g><g transform="translate(-190,-92) scale(1,1)"><path fill="none" stroke="#000000" d="M 397.82072727272725 175.68 C 397.82072727272725 170.886167936 401.70656959767274 167 406.5 167 C 411.29343040232726 167 415.17927272727275 170.886167936 415.17927272727275 175.68 C 415.17927272727275 180.47383206400002 411.29343040232726 184.36 406.5 184.36 C 401.70656959767274 184.36 397.82072727272725 180.47383206400002 397.82072727272725 175.68 Z" stroke-miterlimit="10"/></g><g transform="translate(-190,-92) scale(1,1)"><path fill="none" stroke="#000000" d="M 406.5 184.36 L 406.5 201.64" stroke-miterlimit="10"/></g><g transform="translate(-190,-92) scale(1,1)"><path fill="none" stroke="#000000" d="M 397.31018181818183 190.84 L 415.68981818181817 190.84" stroke-miterlimit="10"/></g><g transform="translate(-190,-92) scale(1,1)"><path fill="none" stroke="#000000" d="M 406.5 201.64 L 393.73636363636365 219" stroke-miterlimit="10"/></g><g transform="translate(-190,-92) scale(1,1)"><path fill="none" stroke="#000000" d="M 406.5 201.64 L 419.26363636363635 219" stroke-miterlimit="10"/></g><g transform="translate(-190,-92) scale(1,1)"><g><path fill="none" stroke="none"/><text fill="#000000" stroke="none" font-family="Arial" font-size="13px" font-style="normal" font-weight="bold" text-decoration="none" x="386.266845703125" y="239.5">Cliente</text></g></g><g transform="translate(-190,-92) scale(1,1)"><path fill="none" stroke="#000000" d="M 439 204 L 590 201" stroke-miterlimit="10"/></g><g transform="translate(-190,-92) scale(1,1)"><path fill="none" stroke="#000000" d="M 891 327 L 1039 326 L 1047 102 L 407 102 L 406 165" stroke-miterlimit="10"/></g><g transform="translate(-190,-92) scale(1,1)"><path fill="none" stroke="#000000" d="M 401.9523044249756 154.7717958305513 L 406 165 L 410.37027953829914 154.90541448314374" stroke-miterlimit="10"/></g><g transform="translate(-190,-92) scale(1,1)"><rect fill="#C0C0C0" stroke="none" x="207" y="559" width="86.39999999999998" height="15" opacity="0.2"/></g><g transform="translate(-190,-92) scale(1,1)"><rect fill="#C0C0C0" stroke="none" x="207" y="573" width="216" height="122" opacity="0.2"/></g><g transform="translate(-190,-92) scale(1,1)"><rect fill="#ffffff" stroke="none" x="200" y="567" width="216" height="121"/></g><g transform="translate(-190,-92) scale(1,1)"><path fill="none" stroke="#000000" d="M 200 567 L 416 567 L 416 688 L 200 688 L 200 567 Z Z" stroke-miterlimit="10"/></g><g transform="translate(-190,-92) scale(1,1)"><rect fill="#ffffff" stroke="none" x="200" y="552" width="86.39999999999998" height="15"/></g><g transform="translate(-190,-92) scale(1,1)"><path fill="none" stroke="#000000" d="M 200 552 L 286.4 552 L 286.4 567 L 200 567 L 200 552 Z Z" stroke-miterlimit="10"/></g><g transform="translate(-190,-92) scale(1,1)"><rect fill="#ffffff" stroke="none" x="200" y="566" width="216" height="122"/></g><g transform="translate(-190,-92) scale(1,1)"><path fill="none" stroke="#000000" d="M 200 566 L 416 566 L 416 688 L 200 688 L 200 566 Z Z" stroke-miterlimit="10"/></g><g transform="translate(-190,-92) scale(1,1)"><g><path fill="none" stroke="none"/><text fill="#000000" stroke="none" font-family="Arial" font-size="13px" font-style="normal" font-weight="bold" text-decoration="none" x="284.155029296875" y="586.5">Proceso</text></g></g><g transform="translate(-190,-92) scale(1,1)"><g><path fill="none" stroke="none"/><text fill="#000000" stroke="none" font-family="Arial" font-size="13px" font-style="normal" font-weight="normal" text-decoration="none" x="240.81640625" y="601.5">(from Use Case Model)</text></g></g><g transform="translate(-190,-92) scale(1,1)"><path fill="none" stroke="#000000" d="M 333 607 L 679 217" stroke-miterlimit="10" stroke-dasharray="3"/></g><g transform="translate(-190,-92) scale(1,1)"><path fill="none" stroke="#000000" d="M 675.4044528990099 227.3957703439698 L 679 217 L 669.1066445569352 221.80848396869328" stroke-miterlimit="10"/></g><g transform="translate(-190,-92) scale(1,1)"><g><path fill="none" stroke="none"/><text fill="#000000" stroke="none" font-family="Arial" font-size="13px" font-style="normal" font-weight="normal" text-decoration="none" x="455.5" y="398.5">«include»</text></g></g><g transform="translate(-190,-92) scale(1,1)"><path fill="#C0C0C0" stroke="none" d="M 247 642.5 C 247 627.312168 277.6684912 615 315.5 615 C 353.3315088 615 384 627.312168 384 642.5 C 384 657.687832 353.3315088 670 315.5 670 C 277.6684912 670 247 657.687832 247 642.5 Z" opacity="0.2"/></g><g transform="translate(-190,-92) scale(1,1)"><path fill="#ffffff" stroke="none" d="M 240 635.5 C 240 620.312168 270.6684912 608 308.5 608 C 346.3315088 608 377 620.312168 377 635.5 C 377 650.687832 346.3315088 663 308.5 663 C 270.6684912 663 240 650.687832 240 635.5 Z"/></g><g transform="translate(-190,-92) scale(1,1)"><path fill="none" stroke="#000000" d="M 240 635.5 C 240 620.312168 270.6684912 608 308.5 608 C 346.3315088 608 377 620.312168 377 635.5 C 377 650.687832 346.3315088 663 308.5 663 C 270.6684912 663 240 650.687832 240 635.5 Z" stroke-miterlimit="10"/></g><g transform="translate(-190,-92) scale(1,1)"><g><path fill="none" stroke="none"/><text fill="#000000" stroke="none" font-family="Arial" font-size="13px" font-style="normal" font-weight="bold" text-decoration="none" x="266.95458984375" y="635">RealizarCobro</text></g></g><g transform="translate(-190,-92) scale(1,1)"><g><path fill="none" stroke="none"/><text fill="#000000" stroke="none" font-family="Arial" font-size="13px" font-style="normal" font-weight="normal" text-decoration="none" x="265.52001953125" y="650">(from Proceso)</text></g></g></g></svg>